<svg width="20" height="18" viewBox="0 0 20 18" fill="none" xmlns="http://www.w3.org/2000/svg">
<path d="M18.1501 2.40002H16.2001V3.60002H18.0001V16.8H1.20015V3.60002H3.00015V2.40002H1.05015C0.909895 2.40237 0.771473 2.43232 0.642793 2.48817C0.514113 2.54402 0.397696 2.62467 0.300191 2.72552C0.202685 2.82637 0.126002 2.94543 0.0745215 3.07592C0.0230407 3.20641 -0.00222957 3.34577 0.00015423 3.48602V16.914C-0.00222957 17.0543 0.0230407 17.1936 0.0745215 17.3241C0.126002 17.4546 0.202685 17.5736 0.300191 17.6745C0.397696 17.7753 0.514113 17.856 0.642793 17.9118C0.771473 17.9677 0.909895 17.9976 1.05015 18H18.1501C18.2904 17.9976 18.4288 17.9677 18.5575 17.9118C18.6862 17.856 18.8026 17.7753 18.9001 17.6745C18.9976 17.5736 19.0743 17.4546 19.1257 17.3241C19.1772 17.1936 19.2025 17.0543 19.2001 16.914V3.48602C19.2025 3.34577 19.1772 3.20641 19.1257 3.07592C19.0743 2.94543 18.9976 2.82637 18.9001 2.72552C18.8026 2.62467 18.6862 2.54402 18.5575 2.48817C18.4288 2.43232 18.2904 2.40237 18.1501 2.40002Z" fill="#007BFF"/>
<path d="M3.60046 7.19995H4.80046V8.39995H3.60046V7.19995Z" fill="#007BFF"/>
<path d="M7.20007 7.19995H8.40007V8.39995H7.20007V7.19995Z" fill="#007BFF"/>
<path d="M10.8002 7.19995H12.0002V8.39995H10.8002V7.19995Z" fill="#007BFF"/>
<path d="M14.4002 7.19995H15.6002V8.39995H14.4002V7.19995Z" fill="#007BFF"/>
<path d="M3.60046 10.2H4.80046V11.3999H3.60046V10.2Z" fill="#007BFF"/>
<path d="M7.20007 10.2H8.40007V11.3999H7.20007V10.2Z" fill="#007BFF"/>
<path d="M10.8002 10.2H12.0002V11.3999H10.8002V10.2Z" fill="#007BFF"/>
<path d="M14.4002 10.2H15.6002V11.3999H14.4002V10.2Z" fill="#007BFF"/>
<path d="M3.60046 13.2H4.80046V14.4H3.60046V13.2Z" fill="#007BFF"/>
<path d="M7.20007 13.2H8.40007V14.4H7.20007V13.2Z" fill="#007BFF"/>
<path d="M10.8002 13.2H12.0002V14.4H10.8002V13.2Z" fill="#007BFF"/>
<path d="M14.4002 13.2H15.6002V14.4H14.4002V13.2Z" fill="#007BFF"/>
<path d="M4.80044 4.79999C4.95957 4.79999 5.11218 4.73678 5.2247 4.62425C5.33722 4.51173 5.40044 4.35912 5.40044 4.19999V0.599999C5.40044 0.440869 5.33722 0.288257 5.2247 0.175736C5.11218 0.063214 4.95957 0 4.80044 0C4.64131 0 4.4887 0.063214 4.37618 0.175736C4.26365 0.288257 4.20044 0.440869 4.20044 0.599999V4.19999C4.20044 4.35912 4.26365 4.51173 4.37618 4.62425C4.4887 4.73678 4.64131 4.79999 4.80044 4.79999Z" fill="#007BFF"/>
<path d="M14.4002 4.79999C14.5593 4.79999 14.7119 4.73678 14.8244 4.62425C14.937 4.51173 15.0002 4.35912 15.0002 4.19999V0.599999C15.0002 0.440869 14.937 0.288257 14.8244 0.175736C14.7119 0.063214 14.5593 0 14.4002 0C14.241 0 14.0884 0.063214 13.9759 0.175736C13.8634 0.288257 13.8002 0.440869 13.8002 0.599999V4.19999C13.8002 4.35912 13.8634 4.51173 13.9759 4.62425C14.0884 4.73678 14.241 4.79999 14.4002 4.79999Z" fill="#007BFF"/>
<path d="M6.6001 2.40002H12.6001V3.60002H6.6001V2.40002Z" fill="#007BFF"/>
</svg>
