<svg width="25" height="20" viewBox="0 0 25 20" fill="none" xmlns="http://www.w3.org/2000/svg">
<path d="M5 15H15V14.3125C15 13.3958 14.5417 12.6562 13.625 12.0938C12.7083 11.5312 11.5 11.25 10 11.25C8.5 11.25 7.29167 11.5312 6.375 12.0938C5.45833 12.6562 5 13.3958 5 14.3125V15ZM10 10C10.6875 10 11.276 9.75521 11.7656 9.26562C12.2552 8.77604 12.5 8.1875 12.5 7.5C12.5 6.8125 12.2552 6.22396 11.7656 5.73438C11.276 5.24479 10.6875 5 10 5C9.3125 5 8.72396 5.24479 8.23438 5.73438C7.74479 6.22396 7.5 6.8125 7.5 7.5C7.5 8.1875 7.74479 8.77604 8.23438 9.26562C8.72396 9.75521 9.3125 10 10 10ZM2.5 20C1.8125 20 1.22396 19.7552 0.734375 19.2656C0.244792 18.776 0 18.1875 0 17.5V2.5C0 1.8125 0.244792 1.22396 0.734375 0.734375C1.22396 0.244792 1.8125 0 2.5 0H17.5C18.1875 0 18.776 0.244792 19.2656 0.734375C19.7552 1.22396 20 1.8125 20 2.5V8.125L25 3.125V16.875L20 11.875V17.5C20 18.1875 19.7552 18.776 19.2656 19.2656C18.776 19.7552 18.1875 20 17.5 20H2.5ZM2.5 17.5H17.5V2.5H2.5V17.5Z" fill="#999999"/>
</svg>
