<svg width="21" height="20" viewBox="0 0 21 20" fill="none" xmlns="http://www.w3.org/2000/svg">
<path d="M12.2842 10.8619H19.1241C19.4449 10.8619 19.7362 10.9925 19.9467 11.2034C20.1573 11.4139 20.2883 11.7051 20.2883 12.026V18.836C20.2883 19.1565 20.1573 19.448 19.9467 19.6582C19.7362 19.8691 19.4449 20 19.1241 20H12.2842C11.9635 20 11.6723 19.8691 11.4616 19.6582C11.2511 19.448 11.1202 19.1565 11.1202 18.836V12.0261C11.1202 11.7053 11.2511 11.4141 11.4616 11.2036C11.6723 10.9925 11.9635 10.8619 12.2842 10.8619ZM1.16434 0H8.0041C8.32473 0 8.61615 0.130765 8.82683 0.341608C9.0375 0.552451 9.16827 0.843536 9.16827 1.16434V7.97421C9.16827 8.29501 9.0375 8.58626 8.82683 8.79678C8.61615 9.00745 8.32473 9.13838 8.0041 9.13838H1.16434C0.845022 9.13838 0.554762 9.00745 0.343919 8.79678L0.342764 8.79579L0.341608 8.79678C0.130765 8.5861 0 8.29485 0 7.97405V1.16434C0 0.843536 0.130765 0.552285 0.341608 0.341608C0.356963 0.326253 0.373144 0.311723 0.389489 0.29835C0.595544 0.113099 0.867641 0 1.16434 0ZM7.9468 1.2213H1.2213V7.91692H7.94664L7.9468 1.2213ZM12.2842 0H19.1241C19.4449 0 19.7362 0.130765 19.9467 0.341608C20.1573 0.552285 20.2883 0.843536 20.2883 1.16434V7.97421C20.2883 8.29501 20.1573 8.58626 19.9467 8.79678C19.7362 9.00745 19.4449 9.13838 19.1241 9.13838H12.2842C11.9635 9.13838 11.6723 9.00745 11.4616 8.79678C11.2511 8.58626 11.1202 8.29485 11.1202 7.97421V1.16434C11.1202 0.843536 11.2511 0.552285 11.4616 0.341608C11.6723 0.130765 11.9635 0 12.2842 0ZM19.067 1.2213H12.3415V7.91692H19.067V1.2213ZM1.16434 10.8619H8.0041C8.32473 10.8619 8.61615 10.9925 8.82683 11.2034C9.0375 11.4139 9.16827 11.7051 9.16827 12.026V18.836C9.16827 19.1565 9.0375 19.448 8.82683 19.6582C8.61615 19.8691 8.32473 20 8.0041 20H1.16434C0.845022 20 0.554762 19.8691 0.343919 19.6582L0.342764 19.6572L0.341608 19.6582C0.130765 19.4482 0 19.1566 0 18.8362V12.0261C0 11.7053 0.130765 11.4141 0.341608 11.2036C0.356963 11.188 0.373144 11.1735 0.389654 11.16C0.595544 10.9749 0.867641 10.8619 1.16434 10.8619ZM7.9468 12.0832H1.2213V18.7789H7.94664L7.9468 12.0832ZM19.067 12.0832H12.3415V18.7789H19.067V12.0832Z" fill="#FE7700"/>
</svg>
