<svg width="24" height="24" viewBox="0 0 24 24" fill="none" xmlns="http://www.w3.org/2000/svg">
<mask id="path-1-outside-1_339_1266" maskUnits="userSpaceOnUse" x="0" y="0" width="24" height="24" fill="black">
<rect fill="white" width="24" height="24"/>
<path d="M8.48056 18.9491H7.98205C3.99402 18.9491 2 17.9521 2 12.9671V7.98205C2 3.99402 3.99402 2 7.98205 2H15.9581C19.9462 2 21.9402 3.99402 21.9402 7.98205V12.9671C21.9402 16.9551 19.9462 18.9491 15.9581 18.9491H15.4596C15.1505 18.9491 14.8514 19.0987 14.662 19.3479L13.1665 21.342C12.5085 22.2193 11.4317 22.2193 10.7737 21.342L9.27816 19.3479C9.11864 19.1286 8.74975 18.9491 8.48056 18.9491Z"/>
</mask>
<path d="M14.662 19.3479L13.0697 18.1378L13.062 18.1479L14.662 19.3479ZM13.1665 21.342L14.7665 22.542L13.1665 21.342ZM10.7737 21.342L9.17368 22.542L10.7737 21.342ZM9.27816 19.3479L7.66069 20.5243C7.66646 20.5322 7.67228 20.5401 7.67816 20.5479L9.27816 19.3479ZM8.48056 16.9491H7.98205V20.9491H8.48056V16.9491ZM7.98205 16.9491C6.0234 16.9491 5.20949 16.6697 4.81252 16.3224C4.48162 16.0328 4 15.2872 4 12.9671H0C0 15.6321 0.515393 17.8774 2.1785 19.3327C3.77555 20.7301 5.95267 20.9491 7.98205 20.9491V16.9491ZM4 12.9671V7.98205H0V12.9671H4ZM4 7.98205C4 6.29632 4.42008 5.39938 4.90973 4.90973C5.39938 4.42008 6.29632 4 7.98205 4V0C5.67974 0 3.58567 0.576931 2.0813 2.0813C0.576931 3.58567 0 5.67974 0 7.98205H4ZM7.98205 4H15.9581V0H7.98205V4ZM15.9581 4C17.6438 4 18.5408 4.42008 19.0304 4.90973C19.5201 5.39938 19.9402 6.29632 19.9402 7.98205H23.9402C23.9402 5.67974 23.3632 3.58567 21.8589 2.0813C20.3545 0.576931 18.2604 0 15.9581 0V4ZM19.9402 7.98205V12.9671H23.9402V7.98205H19.9402ZM19.9402 12.9671C19.9402 14.6528 19.5201 15.5498 19.0304 16.0394C18.5408 16.5291 17.6438 16.9491 15.9581 16.9491V20.9491C18.2604 20.9491 20.3545 20.3722 21.8589 18.8678C23.3632 17.3635 23.9402 15.2694 23.9402 12.9671H19.9402ZM15.9581 16.9491H15.4596V20.9491H15.9581V16.9491ZM15.4596 16.9491C14.5161 16.9491 13.6316 17.3985 13.0697 18.1378L16.2543 20.5581C16.0713 20.7989 15.785 20.9491 15.4596 20.9491V16.9491ZM13.062 18.1479L11.5665 20.142L14.7665 22.542L16.262 20.5479L13.062 18.1479ZM11.5665 20.142C11.5597 20.151 11.6872 20 11.9701 20C12.253 20 12.3805 20.151 12.3737 20.142L9.17368 22.542C9.82492 23.4103 10.8198 24 11.9701 24C13.1204 24 14.1153 23.4103 14.7665 22.542L11.5665 20.142ZM12.3737 20.142L10.8782 18.1479L7.67816 20.5479L9.17368 22.542L12.3737 20.142ZM10.8956 18.1716C10.5673 17.7202 10.1387 17.4379 9.80878 17.2744C9.47591 17.1094 9.00933 16.9491 8.48056 16.9491V20.9491C8.33472 20.9491 8.22995 20.9263 8.1745 20.9113C8.11461 20.8952 8.06853 20.8762 8.03219 20.8582C7.99605 20.8403 7.94968 20.8134 7.89538 20.7712C7.8448 20.7318 7.75487 20.6538 7.66069 20.5243L10.8956 18.1716Z" fill="#999999" mask="url(#path-1-outside-1_339_1266)"/>
<circle cx="16.5" cy="10.5" r="1.5" fill="#999999"/>
<circle cx="11.5" cy="10.5" r="1.5" fill="#999999"/>
<circle cx="6.5" cy="10.5" r="1.5" fill="#999999"/>
</svg>
