<svg width="18" height="19" viewBox="0 0 18 19" fill="none" xmlns="http://www.w3.org/2000/svg">
<mask id="path-1-outside-1_258_374" maskUnits="userSpaceOnUse" x="0" y="0" width="18" height="19" fill="black">
<rect fill="white" width="18" height="19"/>
<path fill-rule="evenodd" clip-rule="evenodd" d="M5.8 14.6H6.2C6.416 14.6 6.712 14.744 6.84 14.92L8.04 16.52C8.568 17.224 9.432 17.224 9.96 16.52L11.16 14.92C11.312 14.72 11.552 14.6 11.8 14.6H12.2C15.4 14.6 17 13 17 9.8V5.8C17 2.6 15.4 1 12.2 1H5.8C2.6 1 1 2.6 1 5.8V9.8C1 13.8 2.6 14.6 5.8 14.6ZM12.5556 9C13.0465 9 13.4444 8.60203 13.4444 8.11111C13.4444 7.62019 13.0465 7.22222 12.5556 7.22222C12.0646 7.22222 11.6667 7.62019 11.6667 8.11111C11.6667 8.60203 12.0646 9 12.5556 9ZM9.88889 8.11111C9.88889 8.60203 9.49092 9 9 9C8.50908 9 8.11111 8.60203 8.11111 8.11111C8.11111 7.62019 8.50908 7.22222 9 7.22222C9.49092 7.22222 9.88889 7.62019 9.88889 8.11111ZM5.44444 9C5.93536 9 6.33333 8.60203 6.33333 8.11111C6.33333 7.62019 5.93536 7.22222 5.44444 7.22222C4.95352 7.22222 4.55556 7.62019 4.55556 8.11111C4.55556 8.60203 4.95352 9 5.44444 9Z"/>
</mask>
<path d="M6.84 14.92L6.03126 15.5082C6.03415 15.5121 6.03706 15.5161 6.04 15.52L6.84 14.92ZM8.04 16.52L8.84 15.92L8.04 16.52ZM9.96 16.52L10.76 17.12L9.96 16.52ZM11.16 14.92L10.3638 14.3149L10.36 14.32L11.16 14.92ZM6.2 13.6H5.8V15.6H6.2V13.6ZM7.64874 14.3318C7.46047 14.073 7.20619 13.9017 6.99715 13.798C6.78662 13.6937 6.50509 13.6 6.2 13.6V15.6C6.14743 15.6 6.11729 15.592 6.11222 15.5906C6.10493 15.5886 6.10498 15.588 6.10885 15.59C6.11283 15.5919 6.11066 15.5915 6.10202 15.5848C6.09524 15.5795 6.06629 15.5563 6.03126 15.5082L7.64874 14.3318ZM8.84 15.92L7.64 14.32L6.04 15.52L7.24 17.12L8.84 15.92ZM9.16 15.92C9.10677 15.991 9.06169 16.0225 9.03756 16.0354C9.01431 16.048 9.00252 16.048 9 16.048C8.99748 16.048 8.98569 16.048 8.96244 16.0354C8.93831 16.0225 8.89323 15.991 8.84 15.92L7.24 17.12C7.66512 17.6868 8.29371 18.048 9 18.048C9.70629 18.048 10.3349 17.6868 10.76 17.12L9.16 15.92ZM10.36 14.32L9.16 15.92L10.76 17.12L11.96 15.52L10.36 14.32ZM11.8 13.6C11.2348 13.6 10.7021 13.8699 10.3638 14.3149L11.9562 15.5251C11.9373 15.5499 11.9148 15.5676 11.8912 15.5794C11.8676 15.5912 11.837 15.6 11.8 15.6V13.6ZM12.2 13.6H11.8V15.6H12.2V13.6ZM16 9.8C16 11.2459 15.6392 12.1466 15.0929 12.6929C14.5466 13.2392 13.6459 13.6 12.2 13.6V15.6C13.9541 15.6 15.4534 15.1608 16.5071 14.1071C17.5608 13.0534 18 11.5541 18 9.8H16ZM16 5.8V9.8H18V5.8H16ZM12.2 2C13.6459 2 14.5466 2.36079 15.0929 2.90711C15.6392 3.45343 16 4.35414 16 5.8H18C18 4.04586 17.5608 2.54657 16.5071 1.49289C15.4534 0.439213 13.9541 0 12.2 0V2ZM5.8 2H12.2V0H5.8V2ZM2 5.8C2 4.35414 2.36079 3.45343 2.90711 2.90711C3.45343 2.36079 4.35414 2 5.8 2V0C4.04586 0 2.54657 0.439213 1.49289 1.49289C0.439213 2.54657 0 4.04586 0 5.8H2ZM2 9.8V5.8H0V9.8H2ZM5.8 13.6C4.21768 13.6 3.35848 13.3849 2.8585 12.9474C2.39156 12.5388 2 11.7138 2 9.8H0C0 11.8862 0.408444 13.4612 1.5415 14.4526C2.64152 15.4151 4.18232 15.6 5.8 15.6V13.6ZM12.4444 8.11111C12.4444 8.04975 12.4942 8 12.5556 8V10C13.5988 10 14.4444 9.15432 14.4444 8.11111H12.4444ZM12.5556 8.22222C12.4942 8.22222 12.4444 8.17248 12.4444 8.11111H14.4444C14.4444 7.06791 13.5988 6.22222 12.5556 6.22222V8.22222ZM12.6667 8.11111C12.6667 8.17248 12.6169 8.22222 12.5556 8.22222V6.22222C11.5124 6.22222 10.6667 7.06791 10.6667 8.11111H12.6667ZM12.5556 8C12.6169 8 12.6667 8.04975 12.6667 8.11111H10.6667C10.6667 9.15432 11.5124 10 12.5556 10V8ZM9 10C10.0432 10 10.8889 9.15432 10.8889 8.11111H8.88889C8.88889 8.04975 8.93864 8 9 8V10ZM7.11111 8.11111C7.11111 9.15432 7.9568 10 9 10V8C9.06137 8 9.11111 8.04975 9.11111 8.11111H7.11111ZM9 6.22222C7.9568 6.22222 7.11111 7.06791 7.11111 8.11111H9.11111C9.11111 8.17248 9.06137 8.22222 9 8.22222V6.22222ZM10.8889 8.11111C10.8889 7.06791 10.0432 6.22222 9 6.22222V8.22222C8.93864 8.22222 8.88889 8.17248 8.88889 8.11111H10.8889ZM5.33333 8.11111C5.33333 8.04975 5.38308 8 5.44444 8V10C6.48765 10 7.33333 9.15432 7.33333 8.11111H5.33333ZM5.44444 8.22222C5.38308 8.22222 5.33333 8.17248 5.33333 8.11111H7.33333C7.33333 7.06791 6.48765 6.22222 5.44444 6.22222V8.22222ZM5.55556 8.11111C5.55556 8.17248 5.50581 8.22222 5.44444 8.22222V6.22222C4.40124 6.22222 3.55556 7.06791 3.55556 8.11111H5.55556ZM5.44444 8C5.50581 8 5.55556 8.04975 5.55556 8.11111H3.55556C3.55556 9.15432 4.40124 10 5.44444 10V8Z" fill="white" mask="url(#path-1-outside-1_258_374)"/>
</svg>
