<svg width="135" height="337" viewBox="0 0 135 337" fill="none" xmlns="http://www.w3.org/2000/svg">
<g clip-path="url(#clip0_258_393)">
<path style="mix-blend-mode:multiply" d="M129.737 302.186C144.152 315.68 127.862 330.58 93.5044 335.468C59.1051 340.3 19.5814 333.296 5.23566 319.802C-9.12397 306.322 7.11047 291.421 41.4958 286.52C75.8673 281.687 115.391 288.692 129.751 302.186H129.737Z" fill="url(#paint0_radial_258_393)"/>
<path d="M64.7156 262.136L54.0222 246.915L110.28 245.244L132.028 259.267L64.7156 262.136Z" fill="url(#paint1_linear_258_393)"/>
<path d="M132.028 259.267L127.445 321.097L64.7711 327.294L64.7156 262.136L132.028 259.267Z" fill="url(#paint2_linear_258_393)"/>
<path d="M64.7711 327.294L54.6888 301.907L54.0222 246.915L64.7156 262.136L64.7711 327.294Z" fill="#008294"/>
<path style="mix-blend-mode:multiply" d="M112.377 251.121C112.377 253.572 99.5315 255.312 83.7276 255.09C67.9098 254.867 55.1472 252.666 55.175 250.271C55.2166 247.82 68.0625 246.024 83.8387 246.289C99.6426 246.539 112.405 248.67 112.377 251.121Z" fill="url(#paint3_radial_258_393)"/>
<path d="M80.9778 188.247L126.112 172.302L133 229.564L91.7406 252.82L80.9778 188.247Z" fill="url(#paint4_linear_258_393)"/>
<path d="M80.9778 188.247L91.7406 252.82L52.3974 240.565L41.0514 185.113L80.9778 188.247Z" fill="url(#paint5_linear_258_393)"/>
<path d="M41.0514 185.113L84.7136 171.633L126.112 172.302L80.9778 188.247L41.0514 185.113Z" fill="url(#paint6_linear_258_393)"/>
<path style="mix-blend-mode:multiply" d="M108.336 174.015C109.142 177.552 101.795 182.203 91.9628 184.375C82.1305 186.548 73.5341 185.42 72.7564 181.896C71.9648 178.318 79.3113 173.666 89.1297 171.494C98.9759 169.322 107.572 170.491 108.336 174.015Z" fill="url(#paint7_radial_258_393)"/>
<path d="M56.5915 103.997L123.321 117.142L103.559 176.591L40.5792 168.027L56.5915 103.997Z" fill="url(#paint8_linear_258_393)"/>
<path d="M48.4257 85.2527L104.212 97.1173L123.321 117.142L56.5915 103.997L48.4257 85.2527Z" fill="#DE481B"/>
<path d="M56.5915 103.997L40.5793 168.027L35.6075 139.702L48.4257 85.2527L56.5915 103.997Z" fill="#CC4219"/>
<path style="mix-blend-mode:multiply" d="M95.3653 103.802C94.3376 108.829 82.6999 110.681 69.3818 107.924C56.0499 105.18 46.0787 98.8719 47.1202 93.8447C48.1479 88.8036 59.7717 86.9655 73.1037 89.7227C86.4356 92.4661 96.4068 98.7744 95.3653 103.802Z" fill="url(#paint9_radial_258_393)"/>
<path d="M81.7694 23.1862L92.3655 0L127.973 43.5872L125.084 73.9868L81.7694 23.1862Z" fill="url(#paint10_linear_258_393)"/>
<path d="M81.7694 23.1862L125.084 73.9868L75.034 103.328L32.8578 58.975L81.7694 23.1862Z" fill="url(#paint11_linear_258_393)"/>
<path d="M32.8578 58.975L50.4254 31.8618L92.3656 0L81.7694 23.1862L32.8578 58.975Z" fill="#F96C10"/>
<g style="mix-blend-mode:screen">
<path d="M76.8672 69.9065L73.9092 59.1699L83.1027 66.258L76.8672 69.9205M72.3816 48.7814L64.5352 53.4882L72.4093 85.8374L79.9363 81.4927L78.4643 75.8389L88.2133 70.1572L93.185 73.8475L100.879 69.3913L72.4093 48.7953" fill="#F2F2F2"/>
</g>
<g style="mix-blend-mode:screen">
<path d="M73.5342 149.283L74.8952 143.086L83.9915 144.59C84.422 144.659 84.8386 144.743 85.1441 144.952C85.4497 145.077 85.6857 145.314 85.8663 145.578C86.0329 145.815 86.1718 146.108 86.1857 146.47C86.2135 146.832 86.1857 147.236 86.1024 147.653L85.8941 148.558C85.8246 148.976 85.6857 149.338 85.4913 149.645C85.2969 149.965 85.0608 150.243 84.7831 150.397C84.5331 150.592 84.2137 150.689 83.8387 150.773C83.4637 150.842 83.0749 150.828 82.6027 150.731L73.562 149.283M76.3395 136.875L77.7005 130.65L85.4497 131.917C85.8941 132.015 86.2968 132.126 86.6023 132.279C86.9078 132.46 87.1856 132.669 87.3522 132.92C87.5189 133.185 87.6439 133.491 87.6716 133.839C87.6994 134.187 87.6716 134.591 87.5605 135.051L87.3661 135.914C87.2828 136.374 87.1439 136.75 86.9356 137.056C86.7273 137.376 86.519 137.627 86.2135 137.78C85.9496 137.989 85.6441 138.086 85.2552 138.142C84.8942 138.212 84.5053 138.198 84.047 138.114L76.3256 136.861M89.1298 126.069L70.8956 123.033L63.9935 154.157L83.4499 157.22C84.2137 157.373 84.8803 157.457 85.5469 157.471C86.1996 157.471 86.8384 157.471 87.4078 157.373C87.9911 157.262 88.5188 157.165 89.0187 156.956C89.5187 156.816 89.977 156.538 90.4353 156.259C90.8241 155.995 91.2407 155.647 91.6018 155.257C91.949 154.881 92.2684 154.463 92.5878 153.92C92.8794 153.46 93.1016 152.889 93.3516 152.263C93.5738 151.65 93.7544 150.995 93.9349 150.285C94.0043 149.979 94.0599 149.686 94.0877 149.408C94.1571 149.143 94.1988 148.879 94.2265 148.6C94.2265 148.308 94.2404 148.029 94.2265 147.779C94.2265 147.542 94.2265 147.291 94.1988 147.013C94.1571 146.776 94.1154 146.567 94.0599 146.316C94.0321 146.066 93.9904 145.885 93.921 145.662C93.8793 145.425 93.8099 145.258 93.7266 145.035C93.671 144.854 93.5738 144.659 93.5044 144.464C93.3933 144.311 93.31 144.102 93.2266 143.977C93.1016 143.782 93.0044 143.657 92.9072 143.462C92.7683 143.336 92.6572 143.169 92.5461 143.044C92.4073 142.919 92.2684 142.765 92.1017 142.682C91.9629 142.543 91.824 142.417 91.6851 142.334C91.5462 142.194 91.4074 142.097 91.2546 142.027C91.1018 141.916 90.9352 141.805 90.7824 141.735C90.6297 141.665 90.463 141.582 90.3103 141.484C90.6297 141.429 90.9352 141.373 91.2546 141.248C91.5462 141.122 91.824 141.025 92.1017 140.844C92.4073 140.718 92.685 140.509 92.9489 140.342C93.2405 140.12 93.4905 139.897 93.7405 139.674C94.0182 139.423 94.2404 139.145 94.4626 138.838C94.6848 138.546 94.8792 138.226 95.0459 137.891C95.2403 137.543 95.3792 137.181 95.5458 136.805C95.6847 136.415 95.8236 135.984 95.9069 135.538C96.0458 134.87 96.1847 134.229 96.2124 133.63C96.2541 133.045 96.2541 132.488 96.2124 131.931C96.1569 131.416 96.0319 130.915 95.8791 130.469C95.6986 129.996 95.4903 129.578 95.2264 129.202C94.9348 128.812 94.6015 128.464 94.2404 128.144C93.8377 127.823 93.3933 127.531 92.8933 127.266C92.3795 127.002 91.7962 126.793 91.1713 126.598C90.5602 126.403 89.8659 126.264 89.1437 126.138" fill="#F2F2F2"/>
</g>
<g style="mix-blend-mode:screen">
<path d="M117.682 192.382L104.225 198.705C101.601 199.944 99.7954 201.532 98.7677 203.286C97.7123 205.194 97.3651 207.492 97.7123 210.291L99.2954 223.2C99.6148 225.818 100.434 227.503 101.726 228.213C103.017 228.909 104.878 228.603 107.35 227.531C108.669 226.918 110.086 226.236 111.697 225.456C113.294 224.676 114.766 223.994 116.224 223.325C117.863 222.601 119.516 221.654 121.14 220.456L120.502 215.123C118.877 215.931 117.294 216.711 115.752 217.393C115.141 217.922 114.474 218.368 113.794 218.702C113.113 219.022 112.433 219.356 111.752 219.663C111.086 219.969 110.433 220.262 109.822 220.54C109.197 220.819 108.669 221.041 108.17 221.348C107.586 221.626 107.128 221.668 106.753 221.376C106.392 221.208 106.142 220.749 106.073 220.164L104.489 207.213C104.281 205.57 104.92 204.47 106.447 203.746L118.405 198.106L117.71 192.41" fill="#F2F2F2"/>
</g>
<g style="mix-blend-mode:screen">
<path d="M92.5879 303.606L92.6156 284.528L100.448 284.096C103.184 283.86 104.545 285.183 104.545 287.856V298.746C104.531 301.504 103.142 302.938 100.407 303.091L92.5879 303.592M102.267 277.593L84.3804 278.652L84.3248 310.43L102.212 309.302C105.698 309.149 108.322 308.09 110.086 306.21C111.919 304.261 112.78 301.615 112.794 298.301L112.822 287.411C112.822 283.943 111.961 281.451 110.142 279.78C108.378 278.108 105.753 277.356 102.267 277.579" fill="#F2F2F2"/>
</g>
<g style="mix-blend-mode:multiply">
<path d="M76.8672 68.9736L73.9092 58.223L83.1027 65.3111L76.8672 68.9736ZM72.3816 47.8345L64.5352 52.5413L72.4093 84.8905L79.9363 80.5597L78.4643 74.892L88.2133 69.2242L93.185 72.9006L100.879 68.4444L72.4093 47.8484" fill="#F2F2F2"/>
</g>
<g style="mix-blend-mode:multiply">
<path d="M73.5342 148.322L74.8952 142.139L83.9915 143.643C84.422 143.698 84.8386 143.81 85.1441 143.991C85.4497 144.144 85.6857 144.353 85.8663 144.631C86.0329 144.882 86.1718 145.189 86.1857 145.537C86.2135 145.885 86.1857 146.275 86.1024 146.692L85.8941 147.598C85.8246 148.015 85.6857 148.391 85.4913 148.698C85.2969 149.004 85.0608 149.269 84.7831 149.478C84.5331 149.631 84.2137 149.77 83.8387 149.84C83.4637 149.895 83.0749 149.881 82.6027 149.812L73.562 148.322M76.3395 135.956L77.7005 129.745L85.4497 130.998C85.8941 131.082 86.2968 131.193 86.6023 131.374C86.9078 131.527 87.1856 131.75 87.3522 132.015C87.5189 132.252 87.6439 132.558 87.6716 132.92C87.6994 133.268 87.6716 133.686 87.5605 134.132L87.3661 135.023C87.2828 135.455 87.1439 135.83 86.9356 136.151C86.7273 136.471 86.519 136.736 86.2135 136.889C85.9496 137.098 85.6441 137.195 85.2552 137.251C84.8942 137.321 84.5053 137.307 84.047 137.209L76.3256 135.97M89.1298 125.163L70.8956 122.128L63.9935 153.224L83.4499 156.315C84.2137 156.468 84.8803 156.524 85.5469 156.524C86.1996 156.524 86.8384 156.524 87.4078 156.468C87.9911 156.357 88.5188 156.218 89.0187 156.05C89.5187 155.869 89.977 155.605 90.4353 155.34C90.8241 155.076 91.2407 154.741 91.6018 154.324C91.949 153.92 92.2684 153.53 92.5878 152.987C92.8794 152.527 93.1016 151.929 93.3516 151.33C93.5738 150.731 93.7544 150.076 93.9349 149.338C94.0043 149.046 94.0599 148.753 94.0877 148.489C94.1571 148.21 94.1988 147.932 94.2265 147.639C94.2265 147.347 94.2404 147.096 94.2265 146.86C94.2265 146.609 94.2265 146.33 94.1988 146.08C94.1571 145.857 94.1154 145.62 94.0599 145.37C94.0321 145.161 93.9904 144.952 93.921 144.715C93.8793 144.52 93.8099 144.325 93.7266 144.102C93.671 143.935 93.5738 143.726 93.5044 143.559C93.3933 143.378 93.31 143.197 93.2266 143.03C93.1016 142.849 93.0044 142.71 92.9072 142.543C92.7683 142.389 92.6572 142.25 92.5461 142.097C92.4073 142 92.2684 141.832 92.1017 141.735C91.9629 141.624 91.824 141.47 91.6851 141.387C91.5462 141.275 91.4074 141.15 91.2546 141.067C91.1018 140.983 90.9352 140.872 90.7824 140.774C90.6297 140.718 90.463 140.635 90.3103 140.551C90.6297 140.482 90.9352 140.412 91.2546 140.315C91.5462 140.175 91.824 140.064 92.1017 139.911C92.4073 139.758 92.685 139.576 92.9489 139.395C93.2405 139.173 93.4905 138.964 93.7405 138.727C94.0182 138.462 94.2404 138.184 94.4626 137.891C94.6848 137.613 94.8792 137.293 95.0459 136.945C95.2403 136.596 95.3792 136.22 95.5458 135.831C95.6847 135.455 95.8236 135.037 95.9069 134.577C96.0458 133.909 96.1847 133.268 96.2124 132.683C96.2541 132.085 96.2541 131.514 96.2124 130.97C96.1569 130.469 96.0319 129.954 95.8791 129.508C95.6986 129.035 95.4903 128.603 95.2264 128.227C94.9348 127.851 94.6015 127.489 94.2404 127.169C93.8377 126.848 93.3933 126.556 92.8933 126.291C92.3795 126.027 91.7962 125.832 91.1713 125.623C90.5602 125.442 89.8659 125.275 89.1437 125.163" fill="#F2F2F2"/>
</g>
<g style="mix-blend-mode:multiply">
<path d="M117.682 191.435L104.225 197.786C101.601 198.983 99.7954 200.585 98.7677 202.367C97.7123 204.205 97.3651 206.517 97.7123 209.372L99.2954 222.281C99.6148 224.899 100.434 226.57 101.726 227.252C103.017 227.921 104.878 227.67 107.35 226.584C108.669 225.929 110.086 225.275 111.697 224.523C113.294 223.743 114.766 223.019 116.224 222.336C117.863 221.64 119.516 220.665 121.14 219.523L120.502 214.19C118.877 215.011 117.294 215.736 115.752 216.404C115.141 217.003 114.474 217.393 113.794 217.713C113.113 218.033 112.433 218.368 111.752 218.688C111.086 219.008 110.433 219.328 109.822 219.607C109.197 219.885 108.669 220.108 108.17 220.345C107.586 220.665 107.128 220.665 106.753 220.429C106.392 220.275 106.142 219.816 106.073 219.217L104.489 206.211C104.281 204.609 104.92 203.509 106.447 202.785L118.405 197.159L117.71 191.422" fill="#F2F2F2"/>
</g>
<g style="mix-blend-mode:multiply">
<path d="M92.5879 302.604L92.6156 283.553L100.448 283.164C103.184 282.927 104.545 284.18 104.545 286.937V297.827C104.531 300.584 103.142 301.949 100.407 302.172L92.5879 302.59M102.267 276.618L84.3804 277.746L84.3248 309.511L102.212 308.397C105.698 308.188 108.322 307.185 110.086 305.236C111.919 303.384 112.78 300.724 112.794 297.34L112.822 286.478C112.822 283.052 111.961 280.546 110.142 278.888C108.378 277.217 105.753 276.479 102.267 276.632" fill="#F2F2F2"/>
</g>
</g>
<defs>
<radialGradient id="paint0_radial_258_393" cx="0" cy="0" r="1" gradientUnits="userSpaceOnUse" gradientTransform="translate(-699.791 424.118) rotate(-8.08185) scale(63.0572 27.9751)">
<stop stop-color="#333333"/>
<stop offset="0.14" stop-color="#656565" stop-opacity="0.75"/>
<stop offset="0.44" stop-color="#BABABA" stop-opacity="0.34"/>
<stop offset="0.73" stop-color="#EDEDED" stop-opacity="0.08"/>
<stop offset="1" stop-color="white" stop-opacity="0"/>
</radialGradient>
<linearGradient id="paint1_linear_258_393" x1="90.8656" y1="265.882" x2="94.9704" y2="241.725" gradientUnits="userSpaceOnUse">
<stop stop-color="#00AFC7"/>
<stop offset="0.27" stop-color="#02AFC3"/>
<stop offset="0.5" stop-color="#09B1B8"/>
<stop offset="0.73" stop-color="#16B5A6"/>
<stop offset="0.95" stop-color="#27BA8D"/>
<stop offset="1" stop-color="#2DBC86"/>
</linearGradient>
<linearGradient id="paint2_linear_258_393" x1="113.544" y1="322.462" x2="87.2528" y2="272.082" gradientUnits="userSpaceOnUse">
<stop offset="0.1" stop-color="#4FEBFF"/>
<stop offset="0.16" stop-color="#47E7FC"/>
<stop offset="0.53" stop-color="#20D5EC"/>
<stop offset="0.82" stop-color="#08CAE3"/>
<stop offset="1" stop-color="#00C6E0"/>
</linearGradient>
<radialGradient id="paint3_radial_258_393" cx="0" cy="0" r="1" gradientUnits="userSpaceOnUse" gradientTransform="translate(81.3433 254.054) rotate(0.862362) scale(28.4915 4.47179)">
<stop stop-color="#96A3A6"/>
<stop offset="0.12" stop-color="#9AA6A9" stop-opacity="0.96"/>
<stop offset="0.29" stop-color="#A7B1B4" stop-opacity="0.84"/>
<stop offset="0.5" stop-color="#BBC3C5" stop-opacity="0.64"/>
<stop offset="0.73" stop-color="#D8DCDE" stop-opacity="0.37"/>
<stop offset="0.98" stop-color="#FCFCFC" stop-opacity="0.03"/>
<stop offset="1" stop-color="white" stop-opacity="0"/>
</radialGradient>
<linearGradient id="paint4_linear_258_393" x1="80.9778" y1="212.561" x2="133" y2="212.561" gradientUnits="userSpaceOnUse">
<stop stop-color="#6AC726"/>
<stop offset="1" stop-color="#7AE62B"/>
</linearGradient>
<linearGradient id="paint5_linear_258_393" x1="48.6339" y1="236.791" x2="89.1156" y2="196.407" gradientUnits="userSpaceOnUse">
<stop offset="0.23" stop-color="#57A31F"/>
<stop offset="0.72" stop-color="#479113"/>
<stop offset="1" stop-color="#3D850C"/>
</linearGradient>
<linearGradient id="paint6_linear_258_393" x1="83.5748" y1="168.514" x2="83.5748" y2="189.792" gradientUnits="userSpaceOnUse">
<stop offset="0.04" stop-color="#86A31F"/>
<stop offset="0.36" stop-color="#74A117"/>
<stop offset="0.98" stop-color="#469F03"/>
<stop offset="1" stop-color="#459F03"/>
</linearGradient>
<radialGradient id="paint7_radial_258_393" cx="0" cy="0" r="1" gradientUnits="userSpaceOnUse" gradientTransform="translate(90.9135 179.65) rotate(-12.433) scale(18.2354 6.67398)">
<stop stop-color="#A8B7BA"/>
<stop offset="0.11" stop-color="#ABB9BC" stop-opacity="0.96"/>
<stop offset="0.27" stop-color="#B4C1C4" stop-opacity="0.86"/>
<stop offset="0.46" stop-color="#C3CED0" stop-opacity="0.68"/>
<stop offset="0.68" stop-color="#D8DFE0" stop-opacity="0.44"/>
<stop offset="0.91" stop-color="#F3F5F6" stop-opacity="0.13"/>
<stop offset="1" stop-color="white" stop-opacity="0"/>
</radialGradient>
<linearGradient id="paint8_linear_258_393" x1="94.7364" y1="171.53" x2="66.5471" y2="108.229" gradientUnits="userSpaceOnUse">
<stop stop-color="#FF4812"/>
<stop offset="1" stop-color="#FF6738"/>
</linearGradient>
<radialGradient id="paint9_radial_258_393" cx="0" cy="0" r="1" gradientUnits="userSpaceOnUse" gradientTransform="translate(70.2444 97.8162) rotate(11.6511) scale(24.5794 9.27677)">
<stop stop-color="#B4C4C7"/>
<stop offset="0.1" stop-color="#B6C6C9" stop-opacity="0.96"/>
<stop offset="0.26" stop-color="#BECBCE" stop-opacity="0.86"/>
<stop offset="0.44" stop-color="#CAD5D7" stop-opacity="0.7"/>
<stop offset="0.65" stop-color="#DBE3E4" stop-opacity="0.47"/>
<stop offset="0.87" stop-color="#F0F3F4" stop-opacity="0.19"/>
<stop offset="1" stop-color="white" stop-opacity="0"/>
</radialGradient>
<linearGradient id="paint10_linear_258_393" x1="81.7694" y1="37.0004" x2="127.973" y2="37.0004" gradientUnits="userSpaceOnUse">
<stop stop-color="#FF9524"/>
<stop offset="1" stop-color="#FF8317"/>
</linearGradient>
<linearGradient id="paint11_linear_258_393" x1="78.978" y1="103.328" x2="78.978" y2="23.1862" gradientUnits="userSpaceOnUse">
<stop stop-color="#F2950A"/>
<stop offset="1" stop-color="#F24B14"/>
</linearGradient>
<clipPath id="clip0_258_393">
<rect width="135" height="337" fill="white"/>
</clipPath>
</defs>
</svg>
