<svg width="19" height="20" viewBox="0 0 19 20" fill="none" xmlns="http://www.w3.org/2000/svg">
<path d="M18.0112 12.1629L16.4653 11.2702C16.6213 10.4282 16.6213 9.56452 16.4653 8.72259L18.0112 7.82985C18.1891 7.72823 18.2689 7.51775 18.2108 7.32178C17.808 6.02985 17.1221 4.86131 16.2258 3.88873C16.0879 3.73994 15.8629 3.70365 15.6887 3.80527L14.1427 4.698C13.4931 4.13914 12.7455 3.70728 11.9363 3.42422V1.64237C11.9363 1.43915 11.7947 1.26132 11.5951 1.21778C10.2633 0.920196 8.89878 0.934712 7.63225 1.21778C7.43266 1.26132 7.29113 1.43915 7.29113 1.64237V3.42785C6.48548 3.71454 5.73791 4.14639 5.08468 4.70163L3.54235 3.80889C3.36453 3.70728 3.14316 3.73994 3.00525 3.89236C2.10889 4.86131 1.423 6.02985 1.02018 7.32541C0.958488 7.52138 1.04196 7.73186 1.21978 7.83348L2.76574 8.72621C2.60969 9.56815 2.60969 10.4319 2.76574 11.2738L1.21978 12.1665C1.04196 12.2681 0.962117 12.4786 1.02018 12.6746C1.423 13.9665 2.10889 15.1351 3.00525 16.1076C3.14316 16.2564 3.36816 16.2927 3.54235 16.1911L5.08831 15.2984C5.73791 15.8572 6.48548 16.2891 7.29476 16.5722V18.3576C7.29476 18.5609 7.43629 18.7387 7.63588 18.7822C8.96773 19.0798 10.3322 19.0653 11.5988 18.7822C11.7984 18.7387 11.9399 18.5609 11.9399 18.3576V16.5722C12.7455 16.2855 13.4931 15.8536 14.1463 15.2984L15.6923 16.1911C15.8701 16.2927 16.0915 16.2601 16.2294 16.1076C17.1258 15.1387 17.8116 13.9701 18.2145 12.6746C18.2689 12.475 18.1891 12.2645 18.0112 12.1629ZM9.6137 12.8996C8.0133 12.8996 6.71048 11.5968 6.71048 9.99637C6.71048 8.39597 8.0133 7.09316 9.6137 7.09316C11.2141 7.09316 12.5169 8.39597 12.5169 9.99637C12.5169 11.5968 11.2141 12.8996 9.6137 12.8996Z" stroke="white" stroke-width="1.5" stroke-linejoin="round"/>
</svg>
