<svg width="18" height="17" viewBox="0 0 18 17" fill="none" xmlns="http://www.w3.org/2000/svg">
<path fill-rule="evenodd" clip-rule="evenodd" d="M12.7698 0C15.654 0 18 2.34604 18 5.23107V11.4904C18 14.3745 15.654 16.7214 12.7698 16.7214H5.23107C2.34692 16.7214 0 14.3745 0 11.4904V5.23107C0 2.34604 2.34692 0 5.23107 0H12.7698ZM12.7698 1.3082H5.23107C3.06817 1.3082 1.3082 3.06817 1.3082 5.23107V11.4904C1.3082 13.6533 3.06817 15.4132 5.23107 15.4132H12.7698C14.9327 15.4132 16.6918 13.6533 16.6918 11.4904V11.2462L13.8156 11.2467C12.1611 11.2467 10.8146 9.901 10.8137 8.24743C10.8137 6.59212 12.1603 5.24554 13.8156 5.24467L16.6918 5.24415V5.23107C16.6918 3.06817 14.9327 1.3082 12.7698 1.3082ZM16.6918 6.55235L13.8156 6.55288C12.8815 6.55375 12.1219 7.31338 12.1219 8.24656C12.1219 9.17887 12.8824 9.9385 13.8156 9.9385L16.6918 9.93798V6.55235ZM14.2147 7.53839C14.5757 7.53839 14.8688 7.83143 14.8688 8.19249C14.8688 8.55355 14.5757 8.84659 14.2147 8.84659H13.9426C13.5815 8.84659 13.2885 8.55355 13.2885 8.19249C13.2885 7.83143 13.5815 7.53839 13.9426 7.53839H14.2147ZM9.31876 3.95784C9.67983 3.95784 9.97287 4.25087 9.97287 4.61194C9.97287 4.973 9.67983 5.26604 9.31876 5.26604H4.61011C4.24904 5.26604 3.95601 4.973 3.95601 4.61194C3.95601 4.25087 4.24904 3.95784 4.61011 3.95784H9.31876Z" fill="white"/>
</svg>
