<svg width="22" height="15" viewBox="0 0 22 15" fill="none" xmlns="http://www.w3.org/2000/svg">
<path d="M0 6.13421V13.5829C0 13.825 0.201375 14.0211 0.45 14.0211H2.7V5.2579H0.9C0.403031 5.2579 0 5.65032 0 6.13421ZM12.125 4.81974H11.45V3.72434C11.45 3.6033 11.3493 3.50527 11.225 3.50527H10.775C10.6507 3.50527 10.55 3.6033 10.55 3.72434V5.47698C10.55 5.59802 10.6507 5.69605 10.775 5.69605H12.125C12.2493 5.69605 12.35 5.59802 12.35 5.47698V5.03882C12.35 4.91778 12.2493 4.81974 12.125 4.81974ZM15.9992 3.0682L11.4992 0.147059C11.3514 0.0511659 11.1777 0 11 0C10.8223 0 10.6486 0.0511659 10.5008 0.147059L6.00078 3.0682C5.87752 3.14822 5.77645 3.25661 5.70654 3.38378C5.63663 3.51095 5.60003 3.65295 5.6 3.79719V14.0211H9.2V10.0776C9.2 9.83555 9.40137 9.63948 9.65 9.63948H12.35C12.5986 9.63948 12.8 9.83555 12.8 10.0776V14.0211H16.4V3.79746C16.4 3.50444 16.2495 3.2306 15.9992 3.0682ZM11 7.01053C9.75744 7.01053 8.75 6.0296 8.75 4.81974C8.75 3.60988 9.75744 2.62895 11 2.62895C12.2426 2.62895 13.25 3.60988 13.25 4.81974C13.25 6.0296 12.2426 7.01053 11 7.01053ZM21.1 5.2579H19.3V14.0211H21.55C21.7986 14.0211 22 13.825 22 13.5829V6.13421C22 5.65032 21.597 5.2579 21.1 5.2579Z" fill="white"/>
</svg>
