<svg width="19" height="18" viewBox="0 0 19 18" fill="none" xmlns="http://www.w3.org/2000/svg">
<path d="M11.0558 9.77575H17.2117C17.5004 9.77575 17.7625 9.89329 17.952 10.083C18.1416 10.2725 18.2594 10.5346 18.2594 10.8234V16.9524C18.2594 17.2408 18.1416 17.5032 17.952 17.6924C17.7625 17.8822 17.5004 18 17.2117 18H11.0558C10.7672 18 10.5051 17.8822 10.3155 17.6924C10.126 17.5032 10.0082 17.2408 10.0082 16.9524V10.8235C10.0082 10.5348 10.126 10.2727 10.3155 10.0832C10.5051 9.89329 10.7672 9.77575 11.0558 9.77575ZM1.04791 0H7.20368C7.49226 0 7.75453 0.117689 7.94414 0.307447C8.13375 0.497206 8.25144 0.759182 8.25144 1.04791V7.17679C8.25144 7.46551 8.13375 7.72764 7.94414 7.9171C7.75453 8.10671 7.49226 8.22455 7.20368 8.22455H1.04791C0.760519 8.22455 0.499286 8.10671 0.309528 7.9171L0.308487 7.91621L0.307447 7.9171C0.117689 7.72749 0 7.46536 0 7.17664V1.04791C0 0.759182 0.117689 0.497057 0.307447 0.307447C0.321267 0.293628 0.335829 0.280551 0.35054 0.268515C0.535989 0.101789 0.780877 0 1.04791 0ZM7.15212 1.09917H1.09917V7.12523H7.15197L7.15212 1.09917ZM11.0558 0H17.2117C17.5004 0 17.7625 0.117689 17.952 0.307447C18.1416 0.497057 18.2594 0.759182 18.2594 1.04791V7.17679C18.2594 7.46551 18.1416 7.72764 17.952 7.9171C17.7625 8.10671 17.5004 8.22455 17.2117 8.22455H11.0558C10.7672 8.22455 10.5051 8.10671 10.3155 7.9171C10.126 7.72764 10.0082 7.46536 10.0082 7.17679V1.04791C10.0082 0.759182 10.126 0.497057 10.3155 0.307447C10.5051 0.117689 10.7672 0 11.0558 0ZM17.1603 1.09917H11.1073V7.12523H17.1603V1.09917ZM1.04791 9.77575H7.20368C7.49226 9.77575 7.75453 9.89329 7.94414 10.083C8.13375 10.2725 8.25144 10.5346 8.25144 10.8234V16.9524C8.25144 17.2408 8.13375 17.5032 7.94414 17.6924C7.75453 17.8822 7.49226 18 7.20368 18H1.04791C0.760519 18 0.499286 17.8822 0.309528 17.6924L0.308487 17.6915L0.307447 17.6924C0.117689 17.5034 0 17.241 0 16.9525V10.8235C0 10.5348 0.117689 10.2727 0.307447 10.0832C0.321267 10.0692 0.335829 10.0562 0.350689 10.044C0.535989 9.87739 0.780877 9.77575 1.04791 9.77575ZM7.15212 10.8749H1.09917V16.901H7.15197L7.15212 10.8749ZM17.1603 10.8749H11.1073V16.901H17.1603V10.8749Z" fill="white"/>
</svg>
