<svg width="18" height="15" viewBox="0 0 18 15" fill="none" xmlns="http://www.w3.org/2000/svg">
<g clip-path="url(#clip0_339_1006)">
<path d="M4.95 8.16045C5.36366 8.16045 5.77328 8.07836 6.15545 7.91888C6.53763 7.7594 6.88488 7.52564 7.17739 7.23095C7.46989 6.93626 7.70192 6.58642 7.86022 6.20139C8.01852 5.81636 8.1 5.40369 8.1 4.98694C8.1 4.57019 8.01852 4.15752 7.86022 3.77249C7.70192 3.38746 7.46989 3.03762 7.17739 2.74293C6.88488 2.44824 6.53763 2.21449 6.15545 2.055C5.77328 1.89552 5.36366 1.81343 4.95 1.81343C4.53634 1.81343 4.12672 1.89552 3.74455 2.055C3.36237 2.21449 3.01512 2.44824 2.72261 2.74293C2.43011 3.03762 2.19808 3.38746 2.03978 3.77249C1.88148 4.15752 1.8 4.57019 1.8 4.98694C1.8 5.40369 1.88148 5.81636 2.03978 6.20139C2.19808 6.58642 2.43011 6.93626 2.72261 7.23095C3.01512 7.52564 3.36237 7.7594 3.74455 7.91888C4.12672 8.07836 4.53634 8.16045 4.95 8.16045ZM9.9 4.98694C9.9 7.43224 8.15344 9.46669 5.85 9.89171V10.8806H6.75C7.24781 10.8806 7.65 11.2858 7.65 11.7873C7.65 12.2888 7.24781 12.694 6.75 12.694H5.85V13.6007C5.85 14.1023 5.44781 14.5075 4.95 14.5075C4.45219 14.5075 4.05 14.1023 4.05 13.6007V12.694H3.15C2.65219 12.694 2.25 12.2888 2.25 11.7873C2.25 11.2858 2.65219 10.8806 3.15 10.8806H4.05V9.89171C1.74656 9.46669 0 7.43224 0 4.98694C0 2.23279 2.21625 0 4.95 0C7.68375 0 9.9 2.23279 9.9 4.98694ZM7.64719 10.2176C8.19 9.93138 8.685 9.56302 9.1125 9.1295C9.675 9.6537 10.4259 9.97388 11.2528 9.97388C12.9937 9.97388 14.4028 8.5543 14.4028 6.80037C14.4028 5.04644 12.9937 3.62687 11.2528 3.62687C11.0503 3.62687 10.8506 3.6467 10.6594 3.68354C10.5216 3.07434 10.2937 2.50197 9.98438 1.97778C10.3866 1.8701 10.8112 1.81343 11.25 1.81343C12.2906 1.81343 13.2581 2.13645 14.0569 2.69181L14.6363 2.10812L13.6969 1.16173C13.5028 0.96622 13.4466 0.67437 13.5506 0.419356C13.6547 0.164342 13.9022 0 14.175 0H17.325C17.6991 0 18 0.303183 18 0.680037V3.85354C18 4.12839 17.8369 4.37774 17.5837 4.48258C17.3306 4.58742 17.0409 4.53075 16.8469 4.33524L15.9075 3.38885L15.3281 3.97255C15.8766 4.77726 16.2 5.74915 16.2 6.80037C16.2 9.55452 13.9837 11.7873 11.25 11.7873C9.82969 11.7873 8.55 11.1838 7.64719 10.2176Z" fill="#007BFF"/>
</g>
<defs>
<clipPath id="clip0_339_1006">
<rect width="18" height="14.5075" fill="white"/>
</clipPath>
</defs>
</svg>
