<svg width="46" height="38" viewBox="0 0 46 38" fill="none" xmlns="http://www.w3.org/2000/svg">
<path d="M34.9333 14.4528H24.1379V18.4301C24.1379 21.2497 21.8438 23.5437 19.0242 23.5437C16.2046 23.5437 13.9106 21.2497 13.9106 18.4301V9.79371L9.30124 12.5636C7.9305 13.3804 7.09243 14.8647 7.09243 16.4556V19.815L1.41063 23.0962C0.32398 23.7212 -0.05244 25.1133 0.579661 26.1999L6.26147 36.0437C6.88647 37.1303 8.27851 37.4996 9.36516 36.8746L16.7089 32.6346H26.4106C28.9177 32.6346 30.956 30.5962 30.956 28.0891H32.0924C33.3495 28.0891 34.3651 27.0735 34.3651 25.8164V21.271H34.9333C35.8779 21.271 36.6378 20.511 36.6378 19.5664V16.1573C36.6378 15.2127 35.8779 14.4528 34.9333 14.4528ZM45.4233 11.7965L39.7415 1.95282C39.1165 0.866173 37.7245 0.496855 36.6378 1.12185L29.2941 5.3619H22.0356C21.1833 5.3619 20.3524 5.60338 19.6279 6.05082L17.2487 7.53519C16.5811 7.94712 16.1833 8.67866 16.1833 9.45991V18.4301C16.1833 19.9997 17.4546 21.271 19.0242 21.271C20.5938 21.271 21.8651 19.9997 21.8651 18.4301V12.1801H34.9333C37.1279 12.1801 38.9106 13.9627 38.9106 16.1573V18.1815L44.5924 14.9002C45.679 14.2681 46.0483 12.8832 45.4233 11.7965Z" fill="white"/>
</svg>
