<svg width="15" height="15" viewBox="0 0 15 15" fill="none" xmlns="http://www.w3.org/2000/svg">
<path d="M14.1796 1.875H12.6562V2.81248H14.0624V13.1248H0.937605V2.81248H2.34383V1.875H0.82042C0.710845 1.87683 0.602705 1.90023 0.502175 1.94386C0.401645 1.98749 0.310695 2.0505 0.234521 2.12929C0.158346 2.20807 0.098438 2.3011 0.0582191 2.40304C0.0180003 2.50498 -0.00174183 2.61385 0.000120491 2.72342V13.2139C-0.00174183 13.3235 0.0180003 13.4323 0.0582191 13.5343C0.098438 13.6362 0.158346 13.7292 0.234521 13.808C0.310695 13.8868 0.401645 13.9498 0.502175 13.9934C0.602705 14.0371 0.710845 14.0605 0.82042 14.0623H14.1796C14.2892 14.0605 14.3973 14.0371 14.4978 13.9934C14.5984 13.9498 14.6893 13.8868 14.7655 13.808C14.8417 13.7292 14.9016 13.6362 14.9418 13.5343C14.982 13.4323 15.0017 13.3235 14.9999 13.2139V2.72342C15.0017 2.61385 14.982 2.50498 14.9418 2.40304C14.9016 2.3011 14.8417 2.20807 14.7655 2.12929C14.6893 2.0505 14.5984 1.98749 14.4978 1.94386C14.3973 1.90023 14.2892 1.87683 14.1796 1.875Z" fill="#097809"/>
<path d="M2.81281 5.62488H3.75029V6.56236H2.81281V5.62488Z" fill="#097809"/>
<path d="M5.625 5.62488H6.56248V6.56236H5.625V5.62488Z" fill="#097809"/>
<path d="M8.4375 5.62488H9.37498V6.56236H8.4375V5.62488Z" fill="#097809"/>
<path d="M11.25 5.62488H12.1875V6.56236H11.25V5.62488Z" fill="#097809"/>
<path d="M2.81281 7.96863H3.75029V8.90611H2.81281V7.96863Z" fill="#097809"/>
<path d="M5.625 7.96863H6.56248V8.90611H5.625V7.96863Z" fill="#097809"/>
<path d="M8.4375 7.96863H9.37498V8.90611H8.4375V7.96863Z" fill="#097809"/>
<path d="M11.25 7.96863H12.1875V8.90611H11.25V7.96863Z" fill="#097809"/>
<path d="M2.81281 10.3124H3.75029V11.2499H2.81281V10.3124Z" fill="#097809"/>
<path d="M5.625 10.3124H6.56248V11.2499H5.625V10.3124Z" fill="#097809"/>
<path d="M8.4375 10.3124H9.37498V11.2499H8.4375V10.3124Z" fill="#097809"/>
<path d="M11.25 10.3124H12.1875V11.2499H11.25V10.3124Z" fill="#097809"/>
<path d="M3.7503 3.74994C3.87462 3.74994 3.99384 3.70055 4.08175 3.61265C4.16965 3.52474 4.21904 3.40552 4.21904 3.2812V0.468742C4.21904 0.344424 4.16965 0.225198 4.08175 0.137291C3.99384 0.0493852 3.87462 0 3.7503 0C3.62598 0 3.50675 0.0493852 3.41885 0.137291C3.33094 0.225198 3.28156 0.344424 3.28156 0.468742V3.2812C3.28156 3.40552 3.33094 3.52474 3.41885 3.61265C3.50675 3.70055 3.62598 3.74994 3.7503 3.74994Z" fill="#097809"/>
<path d="M11.25 3.74994C11.3743 3.74994 11.4935 3.70055 11.5814 3.61265C11.6694 3.52474 11.7187 3.40552 11.7187 3.2812V0.468742C11.7187 0.344424 11.6694 0.225198 11.5814 0.137291C11.4935 0.0493852 11.3743 0 11.25 0C11.1257 0 11.0064 0.0493852 10.9185 0.137291C10.8306 0.225198 10.7812 0.344424 10.7812 0.468742V3.2812C10.7812 3.40552 10.8306 3.52474 10.9185 3.61265C11.0064 3.70055 11.1257 3.74994 11.25 3.74994Z" fill="#097809"/>
<path d="M5.15625 1.875H9.84367V2.81248H5.15625V1.875Z" fill="#097809"/>
</svg>
