<svg width="15" height="16" viewBox="0 0 15 16" fill="none" xmlns="http://www.w3.org/2000/svg">
<path d="M7.50636 0L0 2.72901L2.8117 3.75318V5.45801C2.8117 5.69975 2.98982 5.94784 3.29517 6.17685C3.29517 6.24046 3.28244 6.30407 3.28244 6.36768C3.28244 7.88804 3.98219 9.2112 5.30534 9.9173C3.16158 10.6489 1.83206 12.43 1.48855 14.5738C1.48219 14.612 1.47583 14.6565 1.47583 14.6947C1.47583 15.0382 1.75573 15.3117 2.09288 15.3117C2.4173 15.3117 2.67812 15.0636 2.70992 14.7455C3.18702 12.5954 5.12723 10.6997 7.48728 10.6997C9.83461 10.6997 11.813 12.6018 12.3092 14.7265C12.3155 14.7901 12.3282 14.8473 12.3473 14.8982C12.4364 15.1336 12.659 15.299 12.9262 15.299C13.2697 15.299 13.5433 15.0191 13.5433 14.6819C13.5433 14.6183 13.5305 14.5547 13.5114 14.4911C13.1489 12.3728 11.8193 10.6234 9.70102 9.90458C11.0305 9.19847 11.7239 7.87532 11.7239 6.36132C11.7239 6.29771 11.7176 6.24046 11.7112 6.17685C12.0102 5.94784 12.1883 5.69975 12.1883 5.45165V3.75318L14.0649 3.07252V4.09033V4.54198H14.5293V4.09033V2.90076L15 2.72901L7.50636 0ZM7.50636 9.40204C5.96692 9.40204 4.70738 8.26972 4.56107 6.81298C5.3626 7.13104 6.49491 7.51908 7.56361 7.51908C8.63231 7.51908 9.65649 7.1374 10.458 6.81934C10.3053 8.27608 9.03944 9.40204 7.50636 9.40204ZM10.916 5.06361C10.916 5.17812 10.7824 5.32443 10.5534 5.4771C10.5534 5.4771 10.4835 5.52799 10.388 5.57888C9.75827 5.94148 8.63868 6.29771 7.50636 6.29771C6.38041 6.29771 5.26081 5.92875 4.63104 5.56616C4.54835 5.52163 4.47837 5.4771 4.47837 5.4771C4.243 5.32443 4.10305 5.17176 4.10305 5.06361V4.23664L7.50636 5.4771L10.9097 4.23664V5.06361H10.916ZM7.5 4.16667L3.21247 2.72901L7.5 1.29135L11.6985 2.72901L7.5 4.16667Z" fill="#097809"/>
</svg>
