<svg width="559" height="194" viewBox="0 0 559 194" fill="none" xmlns="http://www.w3.org/2000/svg">
<mask id="mask0_526_167" style="mask-type:luminance" maskUnits="userSpaceOnUse" x="0" y="0" width="559" height="194">
<path d="M559 0H0V193.923H559V0Z" fill="white"/>
</mask>
<g mask="url(#mask0_526_167)">
<path d="M205.33 36.9636C206.064 36.5379 206.773 36.0412 207.412 35.45C208.857 34.3385 210.347 33.298 211.886 32.3283C213.803 31.1695 215.862 30.2235 217.992 29.514C220.382 28.6863 222.866 28.2843 225.399 28.2843C227.908 28.2843 230.392 28.6863 232.782 29.4905C234.912 30.2 236.972 31.1459 238.913 32.3283C240.452 33.2743 241.966 34.3149 243.385 35.45C244.025 36.0177 244.71 36.5379 245.444 36.9636C245.846 36.9636 246.035 36.3723 246.035 35.1662C246.084 33.8656 245.871 32.5885 245.422 31.3824C244.663 29.9633 243.645 28.6627 242.462 27.5748C240.049 25.0445 237.256 22.8924 234.179 21.2133C231.457 19.8179 228.452 19.0848 225.399 19.1085C223.836 19.1085 222.275 19.2977 220.761 19.6524C219.293 20.0071 217.872 20.5511 216.524 21.2369C215.103 21.9937 213.756 22.8686 212.477 23.8619C211.01 24.9971 209.637 26.2269 208.334 27.5512C207.151 28.6154 206.135 29.8689 205.377 31.2877C204.952 32.5412 204.761 33.8418 204.81 35.1662C204.761 36.3723 204.952 36.9636 205.33 36.9636Z" fill="white"/>
<path d="M120.722 36.9635C121.598 36.5378 122.45 36.0412 123.231 35.4501C124.769 34.4568 126.592 33.4162 128.674 32.3282C131.041 31.1458 133.502 30.1999 136.058 29.5139C138.946 28.71 141.951 28.2842 144.957 28.308C147.962 28.308 150.968 28.71 153.879 29.5139C156.435 30.1999 158.896 31.1458 161.263 32.352C163.133 33.298 164.955 34.3384 166.706 35.4736C167.487 36.0649 168.315 36.5616 169.215 36.9871C169.688 36.9871 169.901 36.396 169.901 35.1899C169.972 33.889 169.712 32.5884 169.168 31.406C168.221 29.9397 167.014 28.6626 165.618 27.5985C162.612 24.997 159.251 22.8685 155.63 21.2368C152.246 19.8178 148.601 19.0847 144.933 19.132C143.04 19.132 141.17 19.2976 139.324 19.676C137.549 20.0307 135.821 20.5746 134.165 21.2604C132.461 21.9936 130.828 22.8685 129.266 23.8855C127.514 25.0206 125.834 26.2505 124.225 27.5985C122.829 28.6153 121.598 29.8688 120.651 31.335C120.131 32.5647 119.894 33.8655 119.965 35.2134C120.012 36.396 120.273 36.9635 120.722 36.9635Z" fill="white"/>
<path d="M144.436 112.144C148.933 112.168 153.382 111.293 157.547 109.59C161.689 107.887 165.428 105.38 168.599 102.211C171.771 99.0425 174.256 95.2823 175.96 91.1674C177.664 87.0523 178.516 82.63 178.516 78.1838C178.539 73.6905 177.664 69.2209 175.96 65.0585C174.256 60.92 171.747 57.1598 168.599 54.0144C165.428 50.8454 161.689 48.3387 157.547 46.6359C153.382 44.9331 148.933 44.058 144.436 44.0818C139.987 44.0818 135.585 44.9568 131.467 46.6359C127.349 48.3387 123.586 50.8454 120.438 54.0144C117.291 57.1833 114.782 60.9436 113.078 65.0585C111.374 69.2209 110.499 73.6905 110.499 78.1838C110.499 82.63 111.374 87.0523 113.078 91.1674C114.782 95.3058 117.291 99.0661 120.438 102.211C123.586 105.38 127.349 107.887 131.467 109.59C135.561 111.293 139.987 112.144 144.436 112.144ZM134.425 57.9402C134.804 53.1866 136.058 49.6866 138.188 47.44C139.916 45.9263 142.14 45.1224 144.436 45.1933H144.602C146.897 45.1459 149.122 45.9263 150.85 47.44C152.98 49.6866 154.234 53.1866 154.613 57.9402C154.991 62.6937 155.11 68.0621 155.015 74.0453V82.2278C155.133 88.2111 154.991 93.6032 154.613 98.4039C154.234 103.205 152.98 106.705 150.85 108.928C149.122 110.418 146.897 111.222 144.602 111.175H144.436C142.14 111.245 139.916 110.441 138.188 108.928C136.011 106.799 134.756 103.323 134.425 98.5221C134.094 93.7215 133.976 88.3057 134.07 82.2989V74.1162C133.928 68.133 134.046 62.7646 134.425 58.0111V57.9402Z" fill="white"/>
<path d="M263.194 108.975V78.2312C263.029 73.6196 261.986 69.079 260.165 64.8694C258.413 60.8491 255.953 57.1836 252.876 54.0617C249.823 50.9637 246.225 48.4807 242.226 46.7779C238.108 45.0042 233.658 44.1056 229.162 44.1291C226.275 44.1527 223.387 44.5075 220.594 45.217C217.803 45.9028 215.128 46.9907 212.666 48.4807C212.24 48.8116 212.028 48.7644 212.028 48.3387V44.1291H210.75C207.934 47.8894 204.407 51.0583 200.336 53.4233C196.147 55.9065 191.438 57.3962 186.562 57.7746V58.8626H187.509C188.882 58.8626 189.592 59.5957 189.592 61.1091V108.999C189.639 109.283 189.615 109.566 189.521 109.85C189.426 110.11 189.284 110.37 189.071 110.56C188.858 110.773 188.621 110.914 188.361 111.009C188.101 111.104 187.793 111.127 187.509 111.08H186.562V112.168H215.222V111.08H214.276C212.784 111.08 212.028 110.394 212.028 108.999V52.1225C212.028 51.4841 212.193 50.8219 212.524 50.2779C212.855 49.7104 213.329 49.2611 213.896 48.9535C216.24 47.6056 218.773 46.6123 221.399 45.9975C223.932 45.4297 226.511 45.1224 229.091 45.1224C231.457 45.0986 233.73 45.9501 235.504 47.5345C237.634 49.7813 239.055 53.2813 239.74 58.0348C240.498 63.3559 240.852 68.7479 240.83 74.14V109.022C240.83 110.418 240.072 111.104 238.582 111.104H237.634V112.191H266.294V111.104H265.349C265.064 111.151 264.757 111.127 264.497 111.033C264.212 110.938 263.974 110.796 263.763 110.583C263.55 110.37 263.407 110.134 263.312 109.85C263.218 109.566 263.172 109.283 263.194 108.975Z" fill="white"/>
<path d="M216.831 137.212C197.307 143.621 176.244 143.621 156.719 137.212C147.205 133.76 138.401 128.652 130.662 122.124L128.722 124.56C136.91 132.814 146.448 139.625 156.932 144.638C166.233 149.155 176.457 151.52 186.823 151.52C197.165 151.52 207.389 149.179 216.713 144.638C227.198 139.601 236.711 132.79 244.852 124.489L242.96 122.053C235.197 128.604 226.346 133.712 216.831 137.212Z" fill="white"/>
<path d="M54.5748 46.5177L33.4881 0.0708008H4.09446V1.15866H5.18313C5.53813 1.11137 5.89312 1.13502 6.22443 1.25326C6.55577 1.37151 6.86344 1.5607 7.12377 1.79719C7.38411 2.05734 7.57343 2.36477 7.6681 2.69586C7.78642 3.02696 7.81008 3.40534 7.7391 3.73643V108.479C7.78642 108.833 7.76276 109.188 7.64442 109.519C7.52609 109.85 7.33676 110.158 7.10009 110.394C6.83976 110.631 6.53211 110.82 6.20077 110.938C5.86944 111.056 5.51444 111.08 5.15945 111.009H4.0708V112.097H12.5434V111.009H11.4547C11.0997 111.08 10.7447 111.056 10.4134 110.938C10.0821 110.844 9.75073 110.654 9.51408 110.394C9.25375 110.158 9.06442 109.85 8.94607 109.496C8.82775 109.165 8.80409 108.81 8.85141 108.455V11.588C8.85141 11.2805 8.92241 10.9731 9.04074 10.6656C9.15908 10.3818 9.34841 10.1217 9.58506 9.90887C9.82173 9.67237 10.1057 9.48318 10.4371 9.36492C10.7447 9.24668 11.0997 9.17573 11.431 9.1994C11.857 9.15209 12.2594 9.24668 12.638 9.43587C13.0167 9.62507 13.3007 9.93252 13.5137 10.2873L43.4518 72.39L73.2003 10.2873C73.4134 9.9798 73.6973 9.71966 74.0049 9.53047C74.3362 9.34128 74.6913 9.22304 75.07 9.17573C75.4487 9.12845 75.8272 9.17573 76.1823 9.29399C76.5372 9.41223 76.8686 9.62507 77.129 9.88521C77.3656 10.0981 77.5313 10.3582 77.6733 10.642C77.8152 10.9258 77.8626 11.2332 77.8626 11.5643V108.479C77.8626 108.81 77.8152 109.165 77.6969 109.472C77.5786 109.779 77.3892 110.087 77.1526 110.323C76.9395 110.56 76.6793 110.725 76.3716 110.867C76.0876 110.986 75.7799 111.056 75.4485 111.056H74.1943V112.144H104.132V111.056H102.854C102.499 111.104 102.144 111.08 101.813 110.962C101.482 110.844 101.174 110.654 100.937 110.418C100.701 110.158 100.511 109.874 100.393 109.543C100.275 109.212 100.251 108.857 100.298 108.502V3.76007C100.251 3.40534 100.275 3.0506 100.393 2.71951C100.511 2.38841 100.701 2.08098 100.937 1.84449C101.198 1.58435 101.482 1.41881 101.813 1.30056C102.144 1.18231 102.499 1.15866 102.854 1.20596H104.132V0.09445H76.9159L54.5748 46.5177Z" fill="white"/>
<path d="M416.126 112.144V111.056H415.156C413.664 111.056 412.908 110.37 412.908 108.975V44.1056H411.819C409.05 47.9603 405.452 51.1531 401.336 53.4707C397.075 55.8828 392.365 57.3492 387.491 57.8221V58.91H388.461C388.745 58.8627 389.028 58.8862 389.312 58.9809C389.597 59.0755 389.833 59.2173 390.022 59.4302C390.235 59.6431 390.377 59.8795 390.473 60.1633C390.566 60.4472 390.591 60.731 390.542 61.0148V99.4684C389.81 99.3502 389.052 99.3028 388.294 99.3028C385.218 99.1846 382.19 100.225 379.821 102.188C378.97 102.921 378.236 103.796 377.644 104.766V17.0509C377.644 15.561 378.332 14.8042 379.728 14.8042H380.698V13.7164C375.823 13.338 371.089 11.8481 366.853 9.36492C362.688 7.02366 359.09 3.85467 356.228 0.0708008H355.138V109.023C355.185 109.306 355.162 109.59 355.067 109.874C354.971 110.134 354.831 110.394 354.618 110.583C354.404 110.796 354.168 110.938 353.908 111.033C353.624 111.127 353.339 111.151 353.055 111.104H351.967V112.192H380.604V111.104H379.632C379.348 111.151 379.065 111.127 378.781 111.033C378.521 110.938 378.26 110.796 378.071 110.583C377.858 110.37 377.716 110.134 377.622 109.874C377.527 109.614 377.502 109.306 377.551 109.023V108.881C377.598 107.746 377.882 106.658 378.403 105.641C378.923 104.647 379.679 103.772 380.58 103.11C382.781 101.408 385.479 100.509 388.247 100.556C389.005 100.556 389.739 100.627 390.495 100.722V109.046C390.542 109.33 390.52 109.614 390.424 109.898C390.331 110.158 390.188 110.418 389.975 110.607C389.762 110.796 389.526 110.962 389.266 111.056C388.981 111.151 388.696 111.175 388.414 111.127H387.442V112.215H401.405C401.476 112.735 401.525 113.279 401.525 113.823C401.476 115.81 401.074 117.749 400.317 119.594C399.417 121.722 398.092 123.638 396.459 125.246C394.518 127.138 392.248 128.604 389.739 129.597C386.519 130.851 383.088 131.466 379.657 131.371C375.656 131.347 371.68 130.78 367.822 129.692C363.657 128.533 359.61 127.067 355.683 125.246C351.611 123.378 347.589 121.32 343.588 119.073C339.59 116.827 335.732 114.58 331.991 112.333C330.808 111.695 329.696 111.056 328.631 110.418C327.566 109.779 326.454 109.188 325.436 108.644C328.56 107.012 331.424 104.908 333.91 102.401C337.081 99.2555 339.59 95.4952 341.293 91.3566C342.997 87.1943 343.873 82.7248 343.848 78.2077V61.1094C343.802 60.8255 343.826 60.5417 343.919 60.2579C344.015 59.9742 344.157 59.7377 344.371 59.5249C344.56 59.312 344.82 59.1702 345.08 59.0755C345.34 58.9809 345.647 58.9573 345.932 59.0047H347.021V57.9167C342.098 57.4674 337.317 55.9775 333.01 53.5652C328.869 51.2477 325.296 48.055 322.525 44.2001H321.437V46.2813C317.697 44.8623 313.746 44.153 309.745 44.2001C305.249 44.1292 300.777 45.0043 296.612 46.7306C292.447 48.457 288.682 51.0348 285.56 54.2747C282.387 57.4201 279.878 61.1566 278.175 65.2952C276.472 69.4101 275.62 73.8326 275.642 78.3023C275.524 86.6977 278.624 94.8095 284.304 100.982C283.216 101.62 282.175 102.354 281.181 103.158C279.996 104.151 278.884 105.239 277.915 106.421C276.803 107.769 275.927 109.283 275.288 110.891C274.555 112.712 274.175 114.675 274.199 116.661C274.128 119.854 274.98 122.976 276.614 125.719C278.317 128.415 280.754 130.567 283.641 131.891C286.765 133.381 290.007 134.587 293.345 135.51C297.226 136.645 301.273 137.804 305.509 139.033C309.745 140.263 313.959 141.564 318.146 142.959C322.1 144.236 325.909 145.844 329.603 147.76C332.725 149.344 335.518 151.497 337.862 154.098C339.447 155.872 340.488 158.047 340.844 160.389C341.198 162.73 340.866 165.142 339.85 167.294C338.098 171.362 335.567 175.027 332.372 178.078C329.176 181.129 325.414 183.494 321.271 185.055C317.13 186.615 312.727 187.325 308.326 187.136C303.924 186.947 299.594 185.859 295.593 183.967C291.333 181.886 287.548 178.977 284.446 175.359C286.151 176.21 287.997 176.636 289.89 176.636C292.115 176.636 294.268 175.973 296.114 174.744C297.96 173.514 299.403 171.764 300.256 169.706C301.108 167.649 301.322 165.402 300.895 163.226C300.468 161.051 299.403 159.041 297.817 157.48C296.256 155.919 294.244 154.831 292.067 154.405C289.89 153.98 287.641 154.192 285.582 155.044C283.523 155.895 281.773 157.338 280.541 159.182C279.311 161.027 278.649 163.203 278.649 165.426C278.649 167.98 279.429 170.463 280.897 172.544C282.293 174.602 283.903 176.517 285.7 178.22C288.802 181.46 292.54 184.014 296.659 185.741C305.035 189.17 314.408 189.17 322.785 185.741C331.046 182.075 337.649 175.477 341.293 167.223C344.724 158.851 344.724 149.463 341.293 141.067C337.577 132.601 330.715 125.908 322.171 122.408C317.626 120.611 312.965 119.121 308.231 117.938C303.545 116.756 299.049 115.668 294.788 114.675C291.168 113.918 287.713 112.523 284.566 110.583C283.832 110.181 283.241 109.567 282.838 108.833C282.436 108.1 282.269 107.273 282.316 106.421C282.316 105.712 282.458 104.979 282.767 104.34C283.074 103.701 283.523 103.11 284.068 102.661C285.298 101.62 286.719 100.793 288.233 100.272C289.818 99.6812 291.453 99.2791 293.109 99.0662C294.41 98.8771 295.711 98.7824 297.037 98.7589C299.594 98.7824 302.125 99.1846 304.564 99.965C307.426 100.84 310.197 101.928 312.894 103.229C315.805 104.624 318.787 106.185 321.862 107.887C324.94 109.59 328.087 111.411 331.306 113.327C335.258 115.668 339.234 117.962 343.234 120.209C347.233 122.455 351.258 124.489 355.327 126.287C364.604 130.449 372.721 132.53 379.657 132.53C383.444 132.672 387.206 131.986 390.709 130.52C393.053 129.456 395.23 128.036 397.122 126.263C398.779 124.513 400.128 122.526 401.122 120.327C402.068 118.269 402.566 116.046 402.566 113.8C402.566 113.256 402.541 112.735 402.47 112.192L416.126 112.144ZM320.397 82.3464C320.397 86.8397 320.348 91.0255 320.23 94.9277C320.206 98.2622 319.663 101.573 318.62 104.742C315.189 102.921 311.853 101.36 308.609 100.012C305.722 98.7824 302.694 97.9311 299.569 97.5291C299.334 95.1642 299.238 92.7756 299.238 90.4106V74.2346C299.238 68.1331 299.403 62.7176 299.734 57.9876C300.065 53.2341 301.297 49.8051 303.428 47.653C305.202 46.0922 307.475 45.2407 309.841 45.2407C312.207 45.2407 314.479 46.0922 316.254 47.653C318.384 49.7814 319.592 53.2341 319.945 57.9876C320.277 62.7411 320.444 68.1569 320.419 74.2346L320.397 82.3464Z" fill="white"/>
<path d="M401.667 27.7877C403.133 27.7877 404.6 27.504 405.95 26.9362C407.298 26.3687 408.554 25.541 409.57 24.5004C410.611 23.46 411.44 22.23 411.985 20.8585C412.552 19.5105 412.837 18.0442 412.837 16.578C412.837 14.7333 412.387 12.9123 411.511 11.3042C410.635 9.67239 409.381 8.30075 407.842 7.26018C406.304 6.24327 404.553 5.60473 402.708 5.41554C400.862 5.22635 399.016 5.51014 397.311 6.21961C395.607 6.92909 394.117 8.04061 392.932 9.45956C391.774 10.8785 390.969 12.5812 390.613 14.3786C390.259 16.1759 390.353 18.0442 390.873 19.8179C391.418 21.5916 392.365 23.176 393.666 24.5004C394.709 25.5647 395.939 26.3923 397.311 26.96C398.732 27.5275 400.175 27.8113 401.667 27.7877Z" fill="white"/>
<path d="M469.068 88.9445C469.115 84.5459 467.907 80.2417 465.541 76.5287C463.318 72.9578 460.147 70.0488 456.406 68.1096L439.604 59.3123L436.882 57.8697C435.888 57.4439 435.059 56.7108 434.491 55.812C433.922 54.8898 433.64 53.8257 433.687 52.7613C433.615 51.6498 433.9 50.562 434.467 49.6161C435.036 48.6701 435.888 47.9133 436.882 47.464C439.579 45.9741 442.608 45.1937 445.686 45.2172C448.479 45.1699 451.272 45.7612 453.802 46.92C456.36 48.0788 458.608 49.8052 460.407 51.9335C461.401 53.1635 461.897 54.7243 461.85 56.2851V62.1974H462.937V45.8558H461.85V49.7343C461.85 50.3727 461.59 50.7038 461.045 50.7038C460.927 50.7038 460.809 50.6565 460.689 50.6094C460.571 50.562 460.478 50.4674 460.407 50.3965C458.559 48.4573 456.335 46.8964 453.874 45.8321C451.341 44.7206 448.597 44.1295 445.828 44.1057C443.059 44.0822 440.313 44.6261 437.758 45.6903C434.018 47.2747 430.822 49.9234 428.574 53.3052C426.35 56.7108 425.167 60.6838 425.19 64.7515C425.167 68.3934 426.137 71.9645 427.983 75.1099C429.782 78.1842 432.337 80.7621 435.439 82.5593L459.766 95.2116C460.785 95.6611 461.612 96.4177 462.181 97.3637C462.748 98.3096 463.033 99.3976 462.962 100.509C463.009 101.289 462.866 102.07 462.559 102.803C462.252 103.536 461.779 104.175 461.187 104.671C459.199 106.681 456.833 108.29 454.229 109.401C451.532 110.536 448.597 111.128 445.661 111.08C442.679 111.104 439.746 110.513 437.024 109.307C431.77 107.06 427.605 102.874 425.332 97.6239C424.149 94.9042 423.533 91.9482 423.557 88.9683H422.468C422.445 92.0899 423.084 95.1644 424.316 98.0259C426.682 103.583 431.083 108.006 436.644 110.371C439.508 111.6 442.586 112.215 445.686 112.215C448.81 112.215 451.91 111.6 454.796 110.371C460.382 108.03 464.832 103.607 467.174 98.0259C468.452 95.1171 469.068 92.0664 469.068 88.9445Z" fill="white"/>
<path d="M553.913 111.056C553.628 111.104 553.343 111.08 553.061 110.986C552.801 110.891 552.54 110.749 552.327 110.536C552.114 110.323 551.971 110.087 551.878 109.827C551.782 109.567 551.758 109.259 551.807 108.975V71.1838C551.758 67.9202 551.024 64.6804 549.628 61.7243C548.113 58.4134 545.936 55.4573 543.214 52.9976C540.114 50.2071 536.516 48.0314 532.612 46.5888C527.855 44.8387 522.791 44.011 517.726 44.1056C514.839 44.1292 511.975 44.4841 509.158 45.1934C506.367 45.8793 503.692 46.9671 501.23 48.457C500.805 48.6699 500.592 48.5752 500.592 48.1497V0.0708008H499.502C496.687 3.85467 493.114 7.02366 489.02 9.36492C484.784 11.8481 480.049 13.338 475.175 13.7164V14.8042H476.144C477.517 14.8042 478.228 15.561 478.228 17.0509V108.975C478.275 109.259 478.25 109.543 478.157 109.827C478.061 110.087 477.919 110.347 477.706 110.536C477.517 110.749 477.256 110.891 476.996 110.986C476.736 111.08 476.451 111.104 476.169 111.056H475.197V112.144H503.859V111.056H502.887C501.397 111.056 500.663 110.37 500.663 108.975V52.1226C500.639 51.4842 500.805 50.8455 501.137 50.278C501.468 49.7105 501.94 49.2612 502.509 48.9536C507.219 46.4942 512.449 45.2407 517.75 45.2645C519.903 45.1698 522.033 45.832 523.761 47.109C525.322 48.3625 526.554 49.9942 527.359 51.8388C528.257 53.9436 528.827 56.1904 529.038 58.4842C529.298 61.0148 529.44 63.5689 529.418 66.123V109.046C529.418 110.442 528.684 111.127 527.241 111.127H526.269V112.215H554.929V111.127L553.913 111.056Z" fill="white"/>
<path d="M377.384 180.538H367.753L366.096 185.244H362.143L370.404 162.21H374.78L383.041 185.244H379.065L377.384 180.538ZM376.319 177.463L372.581 166.774L368.794 177.463H376.319ZM389.312 176.139C389.312 174.271 389.69 172.615 390.448 171.196C391.229 169.754 392.294 168.666 393.619 167.885C394.969 167.105 396.506 166.727 398.258 166.727C400.459 166.727 402.281 167.247 403.724 168.311C405.192 169.352 406.163 170.841 406.684 172.781H402.612C402.281 171.882 401.76 171.173 401.027 170.652C400.293 170.156 399.37 169.896 398.282 169.896C396.744 169.896 395.489 170.44 394.567 171.551C393.666 172.639 393.217 174.152 393.217 176.115C393.217 178.078 393.666 179.615 394.567 180.727C395.489 181.838 396.744 182.382 398.282 182.382C400.459 182.382 401.927 181.413 402.612 179.497H406.684C406.163 181.342 405.169 182.832 403.702 183.943C402.234 185.031 400.435 185.575 398.258 185.575C396.506 185.575 394.969 185.197 393.619 184.416C392.27 183.612 391.204 182.524 390.448 181.105C389.69 179.639 389.312 177.984 389.312 176.139ZM413.168 176.044C413.168 174.223 413.546 172.592 414.304 171.173C415.085 169.754 416.126 168.666 417.429 167.885C418.754 167.081 420.22 166.703 421.805 166.703C423.25 166.703 424.48 166.987 425.545 167.554C426.635 168.098 427.487 168.808 428.125 169.636V166.987H431.934V185.244H428.125V182.524C427.487 183.376 426.611 184.109 425.499 184.676C424.385 185.244 423.13 185.528 421.712 185.528C420.148 185.528 418.705 185.126 417.404 184.345C416.103 183.518 415.061 182.406 414.28 180.963C413.546 179.521 413.168 177.865 413.168 176.044ZM428.101 176.139C428.101 174.886 427.84 173.798 427.298 172.852C426.775 171.929 426.112 171.22 425.285 170.723C424.456 170.227 423.533 169.99 422.563 169.99C421.594 169.99 420.693 170.227 419.842 170.723C418.99 171.196 418.327 171.882 417.782 172.804C417.286 173.703 417.026 174.791 417.026 176.044C417.026 177.298 417.286 178.409 417.782 179.355C418.303 180.301 418.99 181.034 419.842 181.531C420.693 182.028 421.616 182.264 422.563 182.264C423.533 182.264 424.433 182.028 425.285 181.531C426.137 181.034 426.8 180.349 427.298 179.403C427.84 178.457 428.101 177.369 428.101 176.139ZM439.604 176.044C439.604 174.223 439.982 172.592 440.74 171.173C441.521 169.754 442.537 168.666 443.862 167.885C445.188 167.081 446.655 166.703 448.265 166.703C449.448 166.703 450.631 166.963 451.768 167.507C452.928 168.004 453.873 168.689 454.561 169.564V160.767H458.37V185.244H454.561V182.501C453.945 183.376 453.093 184.109 451.981 184.676C450.891 185.244 449.662 185.528 448.241 185.528C446.655 185.528 445.188 185.126 443.862 184.345C442.561 183.518 441.521 182.406 440.74 180.963C439.982 179.521 439.604 177.865 439.604 176.044ZM454.536 176.139C454.536 174.886 454.276 173.798 453.731 172.852C453.211 171.929 452.548 171.22 451.721 170.723C450.869 170.227 449.969 169.99 448.999 169.99C448.027 169.99 447.129 170.227 446.277 170.723C445.425 171.196 444.763 171.882 444.218 172.804C443.698 173.703 443.46 174.791 443.46 176.044C443.46 177.298 443.722 178.409 444.218 179.355C444.738 180.301 445.425 181.034 446.277 181.531C447.129 182.028 448.052 182.264 448.999 182.264C449.969 182.264 450.869 182.028 451.721 181.531C452.548 181.034 453.235 180.349 453.731 179.403C454.276 178.457 454.536 177.369 454.536 176.139ZM484.025 175.666C484.025 176.352 483.978 176.967 483.883 177.511H469.944C470.062 178.977 470.607 180.136 471.576 181.011C472.546 181.886 473.754 182.335 475.15 182.335C477.185 182.335 478.628 181.484 479.457 179.781H483.529C482.984 181.46 481.966 182.832 480.523 183.919C479.079 184.984 477.303 185.504 475.15 185.504C473.398 185.504 471.837 185.126 470.44 184.345C469.068 183.541 467.979 182.453 467.198 181.034C466.417 179.592 466.039 177.936 466.039 176.068C466.039 174.2 466.417 172.544 467.174 171.125C467.956 169.683 469.021 168.595 470.393 167.815C471.79 167.034 473.375 166.656 475.174 166.656C476.902 166.656 478.439 167.034 479.789 167.791C481.138 168.548 482.179 169.612 482.935 170.96C483.647 172.355 484.025 173.916 484.025 175.666ZM480.073 174.484C480.049 173.088 479.553 171.977 478.581 171.149C477.612 170.321 476.404 169.896 474.961 169.896C473.66 169.896 472.546 170.321 471.623 171.149C470.7 171.977 470.156 173.088 469.967 174.484H480.073ZM513.821 166.703C515.264 166.703 516.542 167.01 517.654 167.602C518.791 168.193 519.691 169.092 520.329 170.25C520.992 171.409 521.323 172.828 521.323 174.484V185.244H517.583V175.051C517.583 173.419 517.181 172.166 516.353 171.315C515.548 170.44 514.412 169.99 513.016 169.99C511.619 169.99 510.483 170.44 509.631 171.315C508.828 172.166 508.401 173.419 508.401 175.051V185.244H504.661V175.051C504.661 173.419 504.259 172.166 503.431 171.315C502.626 170.44 501.49 169.99 500.094 169.99C498.697 169.99 497.563 170.44 496.709 171.315C495.906 172.166 495.479 173.419 495.479 175.051V185.244H491.692V167.01H495.479V169.092C496.095 168.335 496.876 167.767 497.823 167.341C498.768 166.916 499.787 166.703 500.876 166.703C502.342 166.703 503.645 167.01 504.781 167.625C505.915 168.24 506.816 169.139 507.432 170.298C507.974 169.186 508.851 168.311 510.011 167.673C511.217 167.034 512.473 166.703 513.821 166.703ZM546.552 167.01L535.357 193.829H531.452L535.168 184.96L527.972 167.01H532.186L537.321 180.916L542.647 167.01H546.552Z" fill="white"/>
</g>
</svg>
