<svg width="23" height="27" viewBox="0 0 23 27" fill="none" xmlns="http://www.w3.org/2000/svg">
<path d="M11.5838 1C10.7474 1 10.0717 1.67572 10.0717 2.5121V3.41935C6.6222 4.1187 4.02329 7.17125 4.02329 10.8286V11.717C4.02329 13.9379 3.20581 16.0832 1.73152 17.7465L1.38184 18.1387C0.98492 18.5829 0.890414 19.2208 1.1314 19.7642C1.37239 20.3076 1.9158 20.6573 2.51119 20.6573H20.6564C21.2517 20.6573 21.7904 20.3076 22.0361 19.7642C22.2819 19.2208 22.1826 18.5829 21.7857 18.1387L21.436 17.7465C19.9617 16.0832 19.1443 13.9426 19.1443 11.717V10.8286C19.1443 7.17125 16.5453 4.1187 13.0959 3.41935V2.5121C13.0959 1.67572 12.4202 1 11.5838 1ZM13.7243 25.1164C14.2914 24.5493 14.608 23.7791 14.608 22.9758H11.5838H8.55958C8.55958 23.7791 8.87617 24.5493 9.44321 25.1164C10.0102 25.6834 10.7805 26 11.5838 26C12.3871 26 13.1573 25.6834 13.7243 25.1164Z" stroke="white" stroke-width="1.5"/>
<path d="M19.4957 6.85938C19.4957 8.35785 18.281 9.57259 16.7825 9.57259C15.2841 9.57259 14.0693 8.35785 14.0693 6.85938C14.0693 5.36092 15.2841 4.14618 16.7825 4.14618C18.281 4.14618 19.4957 5.36092 19.4957 6.85938Z" fill="#FF0000" stroke="white"/>
</svg>
