<svg width="15" height="15" viewBox="0 0 15 15" fill="none" xmlns="http://www.w3.org/2000/svg">
<path d="M12.9839 8.20615C12.8222 8.20615 12.653 8.15468 12.4913 8.11792C12.1637 8.04573 11.8418 7.94989 11.528 7.83115C11.1869 7.70706 10.812 7.7135 10.4753 7.84924C10.1387 7.98499 9.86413 8.24044 9.70451 8.56645L9.54274 8.89733C8.82657 8.49893 8.16847 8.00412 7.58686 7.42674C7.00949 6.84513 6.51467 6.18703 6.11627 5.47086L6.4251 5.26498C6.7511 5.10535 7.00655 4.83081 7.1423 4.49416C7.27804 4.15751 7.28449 3.78256 7.16039 3.44145C7.04364 3.12705 6.94785 2.80527 6.87363 2.47821C6.83686 2.31645 6.80745 2.14733 6.78539 1.97821C6.6961 1.46028 6.42482 0.991256 6.02041 0.655592C5.61599 0.319929 5.10502 0.139687 4.57951 0.147328H2.37363C2.05674 0.144353 1.74293 0.209691 1.45356 0.338895C1.16419 0.468098 0.906061 0.658134 0.696738 0.896065C0.487414 1.134 0.331814 1.41424 0.24053 1.71771C0.149246 2.02118 0.124421 2.34075 0.167745 2.65468C0.559464 5.73511 1.9663 8.59724 4.16602 10.789C6.36574 12.9807 9.23297 14.3771 12.3148 14.7576H12.5942C13.1364 14.7584 13.6599 14.5595 14.0648 14.1988C14.2974 13.9907 14.4832 13.7357 14.61 13.4505C14.7368 13.1653 14.8015 12.8565 14.8001 12.5444V10.3385C14.7911 9.82776 14.6051 9.33597 14.2739 8.94708C13.9427 8.5582 13.4867 8.29632 12.9839 8.20615ZM13.3516 12.6179C13.3514 12.7223 13.3291 12.8255 13.286 12.9206C13.2429 13.0157 13.18 13.1005 13.1016 13.1694C13.0194 13.2403 12.9233 13.2933 12.8195 13.325C12.7157 13.3566 12.6064 13.3662 12.4986 13.3532C9.74488 13.0001 7.18704 11.7403 5.22857 9.77254C3.27009 7.80475 2.02246 5.24096 1.68245 2.48556C1.67075 2.37786 1.681 2.26889 1.7126 2.16526C1.74419 2.06163 1.79647 1.96548 1.86627 1.88262C1.93518 1.80419 2.02 1.74133 2.11508 1.69822C2.21017 1.65512 2.31334 1.63275 2.41774 1.63262H4.62363C4.79462 1.62882 4.96159 1.68474 5.09579 1.79076C5.23 1.89679 5.32305 2.04628 5.35892 2.2135C5.38833 2.41448 5.4251 2.61301 5.46922 2.80909C5.55416 3.1967 5.6672 3.57761 5.80745 3.9488L4.77804 4.42674C4.69002 4.46712 4.61085 4.52449 4.54507 4.59556C4.47928 4.66663 4.42819 4.74999 4.39471 4.84085C4.36123 4.93172 4.34603 5.02831 4.34999 5.12506C4.35394 5.22182 4.37697 5.31685 4.41774 5.40468C5.47598 7.67141 7.29807 9.4935 9.5648 10.5517C9.74382 10.6253 9.94461 10.6253 10.1236 10.5517C10.2153 10.5189 10.2996 10.4682 10.3715 10.4026C10.4435 10.337 10.5017 10.2577 10.5427 10.1694L10.9986 9.13998C11.3787 9.27591 11.7667 9.38886 12.1604 9.47821C12.3565 9.52233 12.555 9.55909 12.756 9.5885C12.9232 9.62438 13.0727 9.71743 13.1787 9.85163C13.2847 9.98584 13.3407 10.1528 13.3369 10.3238L13.3516 12.6179Z" fill="#007BFF"/>
</svg>
