<svg width="20" height="19" viewBox="0 0 20 19" fill="none" xmlns="http://www.w3.org/2000/svg">
<path d="M19.0464 12.4958V11.9957L18.5464 11.9958L15.3506 11.9963C15.3506 11.9963 15.3506 11.9963 15.3506 11.9963C13.7882 11.9963 12.516 10.7247 12.5152 9.16355C12.5154 7.60069 13.7876 6.32833 15.3507 6.32741C15.3508 6.32741 15.3509 6.32741 15.3509 6.32741L18.5465 6.32683L19.0464 6.32674V5.82683V5.8123C19.0464 3.13308 16.8682 0.953559 14.1887 0.953559H5.8123C3.13294 0.953559 0.953559 3.13294 0.953559 5.8123V12.7671C0.953559 15.4465 3.13294 17.6258 5.8123 17.6258H14.1887C16.8682 17.6258 19.0464 15.4463 19.0464 12.7671V12.4958ZM19.0464 7.28039V6.7803L18.5464 6.78039L15.3506 6.78097H15.3502C14.0368 6.7822 12.9688 7.84957 12.9688 9.16285C12.9688 10.4754 14.0381 11.5428 15.3506 11.5428H15.3507L18.5465 11.5422L19.0464 11.5421V11.0422V7.28039ZM14.1887 0.5C17.1171 0.5 19.5 2.8828 19.5 5.8123V12.7671C19.5 15.6957 17.117 18.0794 14.1887 18.0794H5.8123C2.88383 18.0794 0.5 15.6956 0.5 12.7671V5.8123C0.5 2.88291 2.88377 0.5 5.8123 0.5H14.1887ZM15.7941 8.87599C15.9191 8.87599 16.0209 8.97773 16.0209 9.10277C16.0209 9.22781 15.9191 9.32955 15.7941 9.32955H15.4917C15.3667 9.32955 15.265 9.22781 15.265 9.10277C15.265 8.97773 15.3667 8.87599 15.4917 8.87599H15.7941ZM10.3542 4.8976C10.4792 4.8976 10.581 4.99934 10.581 5.12438C10.581 5.24941 10.4792 5.35115 10.3542 5.35115H5.12234C4.9973 5.35115 4.89556 5.24942 4.89556 5.12438C4.89556 4.99934 4.9973 4.8976 5.12234 4.8976H10.3542Z" stroke="#8A2BE2"/>
</svg>
