<svg width="559" height="194" viewBox="0 0 559 194" fill="none" xmlns="http://www.w3.org/2000/svg">
<mask id="mask0_526_151" style="mask-type:luminance" maskUnits="userSpaceOnUse" x="0" y="0" width="559" height="194">
<path d="M559 0H0V193.923H559V0Z" fill="white"/>
</mask>
<g mask="url(#mask0_526_151)">
<path d="M205.33 36.9636C206.064 36.5379 206.773 36.0412 207.412 35.45C208.857 34.3385 210.347 33.298 211.886 32.3283C213.803 31.1695 215.862 30.2235 217.992 29.514C220.382 28.6863 222.866 28.2843 225.399 28.2843C227.908 28.2843 230.392 28.6863 232.782 29.4905C234.912 30.2 236.972 31.1459 238.913 32.3283C240.452 33.2743 241.966 34.3149 243.385 35.45C244.025 36.0177 244.71 36.5379 245.444 36.9636C245.846 36.9636 246.036 36.3723 246.036 35.1662C246.084 33.8656 245.871 32.5885 245.422 31.3824C244.663 29.9633 243.645 28.6627 242.462 27.5748C240.049 25.0445 237.256 22.8924 234.179 21.2133C231.457 19.8179 228.452 19.0848 225.399 19.1085C223.836 19.1085 222.275 19.2977 220.761 19.6524C219.293 20.0071 217.872 20.5511 216.524 21.2369C215.103 21.9937 213.756 22.8686 212.477 23.8619C211.01 24.9971 209.637 26.2269 208.334 27.5512C207.151 28.6154 206.135 29.8689 205.377 31.2877C204.952 32.5412 204.761 33.8418 204.81 35.1662C204.761 36.3723 204.952 36.9636 205.33 36.9636Z" fill="#F47D21"/>
<path d="M120.722 36.9637C121.598 36.5379 122.45 36.0413 123.231 35.4502C124.769 34.4569 126.592 33.4163 128.674 32.3284C131.041 31.146 133.502 30.2 136.058 29.5141C138.946 28.7101 141.951 28.2843 144.957 28.3081C147.962 28.3081 150.968 28.7101 153.879 29.5141C156.435 30.2 158.896 31.146 161.263 32.3521C163.133 33.2981 164.955 34.3385 166.706 35.4737C167.487 36.065 168.315 36.5617 169.215 36.9872C169.688 36.9872 169.901 36.3961 169.901 35.19C169.972 33.8892 169.712 32.5886 169.168 31.4062C168.221 29.9398 167.014 28.6628 165.618 27.5986C162.612 24.9972 159.251 22.8686 155.63 21.2369C152.246 19.818 148.601 19.0849 144.933 19.1322C143.04 19.1322 141.17 19.2977 139.324 19.6761C137.549 20.0308 135.821 20.5747 134.165 21.2605C132.461 21.9938 130.828 22.8686 129.266 23.8857C127.514 25.0207 125.834 26.2507 124.225 27.5986C122.829 28.6154 121.598 29.8689 120.651 31.3351C120.131 32.5648 119.894 33.8656 119.965 35.2135C120.012 36.3961 120.273 36.9637 120.722 36.9637Z" fill="#F47D21"/>
<path d="M144.436 112.144C148.933 112.168 153.382 111.293 157.547 109.59C161.689 107.887 165.428 105.381 168.599 102.212C171.771 99.0428 174.256 95.2825 175.96 91.1676C177.664 87.0525 178.516 82.6303 178.516 78.1841C178.539 73.6907 177.664 69.2212 175.96 65.0587C174.256 60.9203 171.747 57.16 168.599 54.0146C165.428 50.8457 161.689 48.3389 157.547 46.6361C153.382 44.9333 148.933 44.0582 144.436 44.082C139.987 44.082 135.585 44.9571 131.467 46.6361C127.349 48.3389 123.586 50.8457 120.438 54.0146C117.291 57.1836 114.782 60.9438 113.078 65.0587C111.374 69.2212 110.499 73.6907 110.499 78.1841C110.499 82.6303 111.374 87.0525 113.078 91.1676C114.782 95.3061 117.291 99.0663 120.438 102.212C123.586 105.381 127.349 107.887 131.467 109.59C135.561 111.293 139.987 112.144 144.436 112.144ZM134.425 57.9404C134.804 53.1869 136.058 49.6868 138.188 47.4403C139.916 45.9266 142.14 45.1226 144.436 45.1935H144.602C146.897 45.1462 149.122 45.9266 150.85 47.4403C152.98 49.6868 154.234 53.1869 154.613 57.9404C154.991 62.694 155.11 68.0623 155.015 74.0456V82.2281C155.133 88.2113 154.991 93.6035 154.613 98.4041C154.234 103.205 152.98 106.705 150.85 108.928C149.122 110.418 146.897 111.222 144.602 111.175H144.436C142.14 111.246 139.916 110.442 138.188 108.928C136.011 106.8 134.756 103.323 134.425 98.5224C134.094 93.7217 133.976 88.306 134.07 82.2992V74.1165C133.928 68.1332 134.046 62.7648 134.425 58.0113V57.9404Z" fill="#F47D21"/>
<path d="M263.194 108.975V78.2314C263.029 73.6199 261.986 69.0792 260.165 64.8696C258.413 60.8494 255.953 57.1838 252.876 54.062C249.823 50.9639 246.225 48.4809 242.226 46.7781C238.108 45.0044 233.658 44.1058 229.162 44.1294C226.275 44.1529 223.387 44.5078 220.594 45.2173C217.803 45.903 215.128 46.991 212.666 48.4809C212.24 48.8118 212.028 48.7647 212.028 48.3389V44.1294H210.75C207.934 47.8896 204.407 51.0586 200.336 53.4235C196.147 55.9067 191.438 57.3965 186.562 57.7749V58.8628H187.509C188.882 58.8628 189.592 59.5959 189.592 61.1094V108.999C189.639 109.283 189.615 109.567 189.521 109.85C189.426 110.111 189.284 110.371 189.071 110.56C188.858 110.773 188.621 110.915 188.361 111.009C188.101 111.104 187.793 111.127 187.509 111.08H186.562V112.168H215.222V111.08H214.276C212.784 111.08 212.028 110.394 212.028 108.999V52.1227C212.028 51.4843 212.193 50.8221 212.524 50.2782C212.855 49.7106 213.329 49.2613 213.896 48.9538C216.24 47.6058 218.773 46.6126 221.399 45.9977C223.932 45.43 226.511 45.1226 229.091 45.1226C231.457 45.0989 233.73 45.9504 235.504 47.5347C237.634 49.7815 239.055 53.2816 239.74 58.0351C240.498 63.3562 240.852 68.7481 240.83 74.1403V109.023C240.83 110.418 240.072 111.104 238.582 111.104H237.634V112.192H266.294V111.104H265.349C265.064 111.151 264.757 111.127 264.497 111.033C264.212 110.938 263.974 110.796 263.763 110.584C263.55 110.371 263.407 110.134 263.312 109.85C263.218 109.567 263.172 109.283 263.194 108.975Z" fill="#F47D21"/>
<path d="M216.831 137.213C197.307 143.622 176.244 143.622 156.719 137.213C147.205 133.76 138.401 128.652 130.662 122.124L128.722 124.56C136.91 132.814 146.448 139.625 156.932 144.638C166.233 149.156 176.457 151.521 186.823 151.521C197.165 151.521 207.389 149.179 216.713 144.638C227.198 139.601 236.711 132.79 244.852 124.489L242.96 122.054C235.197 128.604 226.346 133.713 216.831 137.213Z" fill="#F47D21"/>
<path d="M54.5748 46.5179L33.4881 0.0709229H4.09446V1.15878H5.18313C5.53813 1.11149 5.89312 1.13514 6.22443 1.25338C6.55577 1.37163 6.86344 1.56082 7.12377 1.79731C7.38411 2.05746 7.57343 2.36489 7.6681 2.69598C7.78642 3.02708 7.81008 3.40546 7.7391 3.73655V108.479C7.78642 108.834 7.76276 109.188 7.64442 109.519C7.52609 109.85 7.33676 110.158 7.10009 110.394C6.83976 110.631 6.53211 110.82 6.20077 110.938C5.86944 111.057 5.51444 111.08 5.15945 111.009H4.0708V112.097H12.5434V111.009H11.4547C11.0997 111.08 10.7447 111.057 10.4134 110.938C10.0821 110.844 9.75073 110.655 9.51408 110.394C9.25375 110.158 9.06442 109.85 8.94607 109.496C8.82775 109.165 8.80409 108.81 8.85141 108.455V11.5881C8.85141 11.2806 8.92241 10.9732 9.04074 10.6658C9.15908 10.382 9.34841 10.1218 9.58506 9.90899C9.82173 9.6725 10.1057 9.4833 10.4371 9.36504C10.7447 9.24681 11.0997 9.17585 11.431 9.19952C11.857 9.15221 12.2594 9.24681 12.638 9.436C13.0167 9.62519 13.3007 9.93264 13.5137 10.2874L43.4518 72.3901L73.2003 10.2874C73.4134 9.97992 73.6973 9.71978 74.0049 9.53059C74.3362 9.3414 74.6913 9.22316 75.07 9.17585C75.4487 9.12857 75.8272 9.17585 76.1823 9.29411C76.5372 9.41235 76.8686 9.62519 77.129 9.88533C77.3656 10.0982 77.5313 10.3583 77.6733 10.6421C77.8152 10.9259 77.8626 11.2333 77.8626 11.5644V108.479C77.8626 108.81 77.8152 109.165 77.6969 109.472C77.5786 109.78 77.3892 110.087 77.1526 110.323C76.9395 110.56 76.6793 110.725 76.3716 110.867C76.0876 110.986 75.7799 111.057 75.4485 111.057H74.1943V112.145H104.132V111.057H102.854C102.499 111.104 102.144 111.08 101.813 110.962C101.482 110.844 101.174 110.655 100.937 110.418C100.701 110.158 100.511 109.874 100.393 109.543C100.275 109.212 100.251 108.857 100.298 108.502V3.7602C100.251 3.40546 100.275 3.05072 100.393 2.71963C100.511 2.38853 100.701 2.0811 100.937 1.84461C101.198 1.58447 101.482 1.41893 101.813 1.30068C102.144 1.18243 102.499 1.15879 102.854 1.20608H104.132V0.0945721H76.9159L54.5748 46.5179Z" fill="white"/>
<path d="M416.126 112.144V111.057H415.156C413.664 111.057 412.908 110.371 412.908 108.975V44.1058H411.819C409.05 47.9605 405.452 51.1532 401.336 53.4708C397.075 55.8829 392.365 57.3493 387.491 57.8222V58.9101H388.461C388.745 58.8628 389.028 58.8864 389.312 58.981C389.597 59.0757 389.833 59.2174 390.022 59.4303C390.235 59.6432 390.377 59.8796 390.473 60.1634C390.566 60.4474 390.591 60.7311 390.542 61.0149V99.4685C389.81 99.3503 389.052 99.3029 388.294 99.3029C385.218 99.1847 382.19 100.225 379.821 102.188C378.97 102.921 378.236 103.796 377.644 104.766V17.051C377.644 15.5611 378.332 14.8044 379.728 14.8044H380.698V13.7165C375.823 13.3381 371.089 11.8482 366.853 9.36504C362.688 7.02379 359.09 3.85479 356.228 0.0709229H355.138V109.023C355.185 109.306 355.162 109.59 355.067 109.874C354.971 110.134 354.831 110.394 354.618 110.583C354.404 110.796 354.168 110.938 353.908 111.033C353.624 111.127 353.339 111.151 353.055 111.104H351.967V112.192H380.604V111.104H379.632C379.348 111.151 379.065 111.127 378.781 111.033C378.521 110.938 378.26 110.796 378.071 110.583C377.858 110.371 377.716 110.134 377.622 109.874C377.527 109.614 377.502 109.306 377.551 109.023V108.881C377.598 107.746 377.882 106.658 378.403 105.641C378.923 104.648 379.679 103.773 380.58 103.11C382.781 101.408 385.479 100.509 388.247 100.556C389.005 100.556 389.739 100.627 390.495 100.722V109.046C390.542 109.33 390.52 109.614 390.424 109.898C390.331 110.158 390.188 110.418 389.975 110.607C389.762 110.796 389.526 110.962 389.266 111.057C388.981 111.151 388.696 111.175 388.414 111.127H387.442V112.215H401.405C401.476 112.736 401.525 113.28 401.525 113.824C401.476 115.81 401.074 117.749 400.317 119.594C399.417 121.722 398.092 123.638 396.459 125.246C394.518 127.138 392.248 128.604 389.739 129.597C386.519 130.851 383.088 131.466 379.657 131.371C375.656 131.348 371.68 130.78 367.822 129.692C363.657 128.533 359.61 127.067 355.683 125.246C351.611 123.378 347.589 121.32 343.588 119.074C339.59 116.827 335.732 114.58 331.991 112.334C330.808 111.695 329.696 111.057 328.631 110.418C327.566 109.78 326.454 109.188 325.436 108.644C328.56 107.013 331.424 104.908 333.91 102.401C337.081 99.2556 339.59 95.4954 341.293 91.3567C342.997 87.1945 343.873 82.7249 343.848 78.2078V61.1096C343.802 60.8256 343.826 60.5418 343.919 60.2581C344.015 59.9743 344.157 59.7379 344.371 59.525C344.56 59.3121 344.82 59.1703 345.08 59.0757C345.34 58.981 345.647 58.9574 345.932 59.0048H347.021V57.9168C342.098 57.4675 337.317 55.9776 333.01 53.5653C328.869 51.2478 325.296 48.0551 322.525 44.2002H321.437V46.2814C317.697 44.8624 313.746 44.1531 309.745 44.2002C305.249 44.1293 300.777 45.0044 296.612 46.7307C292.447 48.4571 288.682 51.035 285.56 54.2748C282.387 57.4202 279.878 61.1567 278.175 65.2954C276.472 69.4103 275.62 73.8327 275.642 78.3025C275.524 86.6978 278.624 94.8096 284.304 100.982C283.216 101.621 282.175 102.354 281.181 103.158C279.996 104.151 278.884 105.239 277.915 106.421C276.803 107.769 275.927 109.283 275.288 110.891C274.555 112.712 274.175 114.675 274.199 116.661C274.128 119.854 274.98 122.976 276.614 125.719C278.317 128.415 280.754 130.567 283.641 131.892C286.765 133.381 290.007 134.587 293.345 135.51C297.226 136.645 301.273 137.804 305.509 139.034C309.745 140.263 313.959 141.564 318.146 142.959C322.1 144.236 325.909 145.845 329.603 147.76C332.725 149.345 335.518 151.497 337.862 154.098C339.447 155.872 340.488 158.048 340.844 160.389C341.198 162.73 340.866 165.142 339.85 167.294C338.098 171.362 335.567 175.028 332.372 178.078C329.176 181.129 325.414 183.494 321.271 185.055C317.13 186.616 312.727 187.325 308.326 187.136C303.924 186.947 299.594 185.859 295.593 183.967C291.333 181.886 287.548 178.977 284.446 175.359C286.151 176.21 287.997 176.636 289.89 176.636C292.115 176.636 294.268 175.973 296.114 174.744C297.96 173.514 299.403 171.764 300.256 169.706C301.108 167.649 301.322 165.402 300.895 163.227C300.468 161.051 299.403 159.041 297.817 157.48C296.256 155.919 294.244 154.831 292.067 154.405C289.89 153.98 287.641 154.193 285.582 155.044C283.523 155.895 281.773 157.338 280.541 159.183C279.311 161.027 278.649 163.203 278.649 165.426C278.649 167.98 279.429 170.463 280.897 172.544C282.293 174.602 283.903 176.517 285.7 178.22C288.802 181.46 292.54 184.014 296.659 185.741C305.035 189.17 314.408 189.17 322.785 185.741C331.046 182.075 337.649 175.477 341.293 167.223C344.724 158.851 344.724 149.463 341.293 141.067C337.577 132.601 330.715 125.908 322.171 122.408C317.626 120.611 312.965 119.121 308.231 117.938C303.545 116.756 299.049 115.668 294.788 114.675C291.168 113.918 287.713 112.523 284.566 110.583C283.832 110.182 283.241 109.567 282.838 108.834C282.436 108.1 282.269 107.273 282.316 106.421C282.316 105.712 282.458 104.979 282.767 104.34C283.074 103.702 283.523 103.11 284.068 102.661C285.298 101.621 286.719 100.793 288.233 100.272C289.818 99.6814 291.453 99.2792 293.109 99.0663C294.41 98.8772 295.711 98.7825 297.037 98.759C299.594 98.7825 302.125 99.1847 304.564 99.9651C307.426 100.84 310.197 101.928 312.894 103.229C315.805 104.624 318.787 106.185 321.862 107.888C324.94 109.59 328.087 111.411 331.306 113.327C335.258 115.668 339.234 117.962 343.234 120.209C347.233 122.456 351.258 124.489 355.327 126.287C364.604 130.449 372.721 132.53 379.657 132.53C383.444 132.672 387.206 131.986 390.709 130.52C393.053 129.456 395.23 128.037 397.122 126.263C398.779 124.513 400.128 122.526 401.122 120.327C402.068 118.27 402.566 116.047 402.566 113.8C402.566 113.256 402.541 112.736 402.47 112.192L416.126 112.144ZM320.397 82.3465C320.397 86.8398 320.348 91.0256 320.23 94.9278C320.206 98.2623 319.663 101.573 318.62 104.742C315.189 102.921 311.853 101.36 308.609 100.012C305.722 98.7825 302.694 97.9312 299.569 97.5293C299.334 95.1643 299.238 92.7757 299.238 90.4107V74.2347C299.238 68.1332 299.403 62.7177 299.734 57.9877C300.065 53.2342 301.297 49.8052 303.428 47.6531C305.202 46.0923 307.475 45.2408 309.841 45.2408C312.207 45.2408 314.479 46.0923 316.254 47.6531C318.384 49.7815 319.592 53.2342 319.945 57.9877C320.277 62.7413 320.444 68.157 320.419 74.2347L320.397 82.3465Z" fill="white"/>
<path d="M401.667 27.7879C403.133 27.7879 404.6 27.5041 405.95 26.9364C407.298 26.3688 408.554 25.5411 409.57 24.5005C410.611 23.4601 411.44 22.2302 411.985 20.8587C412.552 19.5106 412.837 18.0443 412.837 16.5781C412.837 14.7335 412.387 12.9125 411.511 11.3043C410.635 9.67251 409.381 8.30087 407.842 7.2603C406.304 6.2434 404.553 5.60485 402.708 5.41566C400.862 5.22647 399.016 5.51026 397.311 6.21973C395.607 6.92921 394.117 8.04073 392.932 9.45968C391.774 10.8786 390.969 12.5814 390.613 14.3787C390.259 16.176 390.353 18.0443 390.873 19.818C391.418 21.5917 392.365 23.1761 393.666 24.5005C394.709 25.5649 395.939 26.3924 397.311 26.9601C398.732 27.5277 400.175 27.8114 401.667 27.7879Z" fill="white"/>
<path d="M469.068 88.9445C469.115 84.5459 467.907 80.2417 465.541 76.5287C463.318 72.9578 460.147 70.0488 456.406 68.1096L439.604 59.3123L436.882 57.8697C435.888 57.4439 435.059 56.7108 434.491 55.812C433.922 54.8898 433.64 53.8257 433.687 52.7613C433.615 51.6498 433.9 50.562 434.467 49.6161C435.036 48.6701 435.888 47.9133 436.882 47.464C439.579 45.9741 442.608 45.1937 445.686 45.2172C448.479 45.1699 451.272 45.7612 453.802 46.92C456.36 48.0788 458.608 49.8052 460.407 51.9335C461.401 53.1635 461.897 54.7243 461.85 56.2851V62.1974H462.937V45.8558H461.85V49.7343C461.85 50.3727 461.59 50.7038 461.045 50.7038C460.927 50.7038 460.809 50.6565 460.689 50.6094C460.571 50.562 460.478 50.4674 460.407 50.3965C458.559 48.4573 456.335 46.8964 453.874 45.8321C451.341 44.7206 448.597 44.1295 445.828 44.1057C443.059 44.0822 440.313 44.6261 437.758 45.6903C434.018 47.2747 430.822 49.9234 428.574 53.3052C426.35 56.7108 425.167 60.6838 425.19 64.7515C425.167 68.3934 426.137 71.9645 427.983 75.1099C429.782 78.1842 432.337 80.7621 435.439 82.5593L459.766 95.2116C460.785 95.6611 461.612 96.4177 462.181 97.3637C462.748 98.3096 463.033 99.3976 462.962 100.509C463.009 101.289 462.866 102.07 462.559 102.803C462.252 103.536 461.779 104.175 461.187 104.671C459.199 106.681 456.833 108.29 454.229 109.401C451.532 110.536 448.597 111.128 445.661 111.08C442.679 111.104 439.746 110.513 437.024 109.307C431.77 107.06 427.605 102.874 425.332 97.6239C424.149 94.9042 423.533 91.9482 423.557 88.9683H422.468C422.445 92.0899 423.084 95.1644 424.316 98.0259C426.682 103.583 431.083 108.006 436.644 110.371C439.508 111.6 442.586 112.215 445.686 112.215C448.81 112.215 451.91 111.6 454.796 110.371C460.382 108.03 464.832 103.607 467.174 98.0259C468.452 95.1171 469.068 92.0664 469.068 88.9445Z" fill="white"/>
<path d="M553.913 111.057C553.628 111.104 553.343 111.08 553.061 110.986C552.801 110.891 552.54 110.749 552.327 110.536C552.114 110.323 551.971 110.087 551.878 109.827C551.782 109.567 551.758 109.259 551.807 108.975V71.1839C551.758 67.9203 551.024 64.6805 549.628 61.7244C548.113 58.4135 545.936 55.4574 543.214 52.9978C540.114 50.2072 536.516 48.0316 532.612 46.589C527.855 44.8388 522.791 44.0111 517.726 44.1058C514.839 44.1293 511.975 44.4842 509.158 45.1935C506.367 45.8794 503.692 46.9672 501.23 48.4571C500.805 48.67 500.592 48.5753 500.592 48.1498V0.0709229H499.502C496.687 3.85479 493.114 7.02379 489.02 9.36504C484.784 11.8482 480.049 13.3381 475.175 13.7165V14.8044H476.144C477.517 14.8044 478.228 15.5611 478.228 17.051V108.975C478.275 109.259 478.25 109.543 478.157 109.827C478.061 110.087 477.919 110.347 477.706 110.536C477.517 110.749 477.256 110.891 476.996 110.986C476.736 111.08 476.451 111.104 476.169 111.057H475.197V112.145H503.859V111.057H502.887C501.397 111.057 500.663 110.371 500.663 108.975V52.1227C500.639 51.4843 500.805 50.8456 501.137 50.2781C501.468 49.7106 501.94 49.2613 502.509 48.9537C507.219 46.4943 512.449 45.2408 517.75 45.2646C519.903 45.1699 522.033 45.8321 523.761 47.1092C525.322 48.3626 526.554 49.9944 527.359 51.8389C528.257 53.9437 528.827 56.1905 529.038 58.4844C529.298 61.0149 529.44 63.569 529.418 66.1231V109.046C529.418 110.442 528.684 111.127 527.241 111.127H526.269V112.215H554.929V111.127L553.913 111.057Z" fill="white"/>
<path d="M377.384 180.538H367.753L366.096 185.244H362.143L370.404 162.21H374.78L383.041 185.244H379.065L377.384 180.538ZM376.319 177.463L372.581 166.774L368.794 177.463H376.319ZM389.312 176.139C389.312 174.271 389.69 172.615 390.448 171.196C391.229 169.754 392.294 168.666 393.619 167.885C394.969 167.105 396.506 166.727 398.258 166.727C400.459 166.727 402.281 167.247 403.724 168.311C405.192 169.352 406.163 170.841 406.684 172.781H402.612C402.281 171.882 401.76 171.173 401.027 170.652C400.293 170.156 399.37 169.896 398.282 169.896C396.744 169.896 395.489 170.44 394.567 171.551C393.666 172.639 393.217 174.152 393.217 176.115C393.217 178.078 393.666 179.615 394.567 180.727C395.489 181.838 396.744 182.382 398.282 182.382C400.459 182.382 401.927 181.413 402.612 179.497H406.684C406.163 181.342 405.169 182.832 403.702 183.943C402.234 185.031 400.435 185.575 398.258 185.575C396.506 185.575 394.969 185.197 393.619 184.416C392.27 183.612 391.204 182.524 390.448 181.105C389.69 179.639 389.312 177.984 389.312 176.139ZM413.168 176.044C413.168 174.223 413.546 172.592 414.304 171.173C415.085 169.754 416.126 168.666 417.429 167.885C418.754 167.081 420.22 166.703 421.805 166.703C423.25 166.703 424.48 166.987 425.545 167.554C426.635 168.098 427.487 168.808 428.125 169.636V166.987H431.934V185.244H428.125V182.524C427.487 183.376 426.611 184.109 425.499 184.676C424.385 185.244 423.13 185.528 421.712 185.528C420.148 185.528 418.705 185.126 417.404 184.345C416.103 183.518 415.061 182.406 414.28 180.963C413.546 179.521 413.168 177.865 413.168 176.044ZM428.101 176.139C428.101 174.886 427.84 173.798 427.298 172.852C426.775 171.929 426.112 171.22 425.285 170.723C424.456 170.227 423.533 169.99 422.563 169.99C421.594 169.99 420.693 170.227 419.842 170.723C418.99 171.196 418.327 171.882 417.782 172.804C417.286 173.703 417.026 174.791 417.026 176.044C417.026 177.298 417.286 178.409 417.782 179.355C418.303 180.301 418.99 181.034 419.842 181.531C420.693 182.028 421.616 182.264 422.563 182.264C423.533 182.264 424.433 182.028 425.285 181.531C426.137 181.034 426.8 180.349 427.298 179.403C427.84 178.457 428.101 177.369 428.101 176.139ZM439.604 176.044C439.604 174.223 439.982 172.592 440.74 171.173C441.521 169.754 442.537 168.666 443.862 167.885C445.188 167.081 446.655 166.703 448.265 166.703C449.448 166.703 450.631 166.963 451.768 167.507C452.928 168.004 453.873 168.689 454.561 169.564V160.767H458.37V185.244H454.561V182.501C453.945 183.376 453.093 184.109 451.981 184.676C450.891 185.244 449.662 185.528 448.241 185.528C446.655 185.528 445.188 185.126 443.862 184.345C442.561 183.518 441.521 182.406 440.74 180.963C439.982 179.521 439.604 177.865 439.604 176.044ZM454.536 176.139C454.536 174.886 454.276 173.798 453.731 172.852C453.211 171.929 452.548 171.22 451.721 170.723C450.869 170.227 449.969 169.99 448.999 169.99C448.027 169.99 447.129 170.227 446.277 170.723C445.425 171.196 444.763 171.882 444.218 172.804C443.698 173.703 443.46 174.791 443.46 176.044C443.46 177.298 443.722 178.409 444.218 179.355C444.738 180.301 445.425 181.034 446.277 181.531C447.129 182.028 448.052 182.264 448.999 182.264C449.969 182.264 450.869 182.028 451.721 181.531C452.548 181.034 453.235 180.349 453.731 179.403C454.276 178.457 454.536 177.369 454.536 176.139ZM484.025 175.666C484.025 176.352 483.978 176.967 483.883 177.511H469.944C470.062 178.977 470.607 180.136 471.576 181.011C472.546 181.886 473.754 182.335 475.15 182.335C477.185 182.335 478.628 181.484 479.457 179.781H483.529C482.984 181.46 481.966 182.832 480.523 183.919C479.079 184.984 477.303 185.504 475.15 185.504C473.398 185.504 471.837 185.126 470.44 184.345C469.068 183.541 467.979 182.453 467.198 181.034C466.417 179.592 466.039 177.936 466.039 176.068C466.039 174.2 466.417 172.544 467.174 171.125C467.956 169.683 469.021 168.595 470.393 167.815C471.79 167.034 473.375 166.656 475.174 166.656C476.902 166.656 478.439 167.034 479.789 167.791C481.138 168.548 482.179 169.612 482.935 170.96C483.647 172.355 484.025 173.916 484.025 175.666ZM480.073 174.484C480.049 173.088 479.553 171.977 478.581 171.149C477.612 170.321 476.404 169.896 474.961 169.896C473.66 169.896 472.546 170.321 471.623 171.149C470.7 171.977 470.156 173.088 469.967 174.484H480.073ZM513.821 166.703C515.264 166.703 516.542 167.01 517.654 167.602C518.791 168.193 519.691 169.092 520.329 170.25C520.992 171.409 521.323 172.828 521.323 174.484V185.244H517.583V175.051C517.583 173.419 517.181 172.166 516.353 171.315C515.548 170.44 514.412 169.99 513.016 169.99C511.619 169.99 510.483 170.44 509.631 171.315C508.828 172.166 508.401 173.419 508.401 175.051V185.244H504.661V175.051C504.661 173.419 504.259 172.166 503.431 171.315C502.626 170.44 501.49 169.99 500.094 169.99C498.697 169.99 497.563 170.44 496.709 171.315C495.906 172.166 495.479 173.419 495.479 175.051V185.244H491.692V167.01H495.479V169.092C496.095 168.335 496.876 167.767 497.823 167.341C498.768 166.916 499.787 166.703 500.876 166.703C502.342 166.703 503.645 167.01 504.781 167.625C505.915 168.24 506.816 169.139 507.432 170.298C507.974 169.186 508.851 168.311 510.011 167.673C511.217 167.034 512.473 166.703 513.821 166.703ZM546.552 167.01L535.357 193.829H531.452L535.168 184.96L527.972 167.01H532.186L537.321 180.916L542.647 167.01H546.552Z" fill="white"/>
</g>
</svg>
