<svg width="275" height="96" viewBox="0 0 275 96" fill="none" xmlns="http://www.w3.org/2000/svg">
<g clip-path="url(#clip0_1563_23015)">
<path d="M101.012 18.1975C101.373 17.9879 101.722 17.7434 102.036 17.4523C102.747 16.9051 103.48 16.3929 104.237 15.9155C105.18 15.345 106.193 14.8793 107.241 14.53C108.417 14.1225 109.639 13.9246 110.885 13.9246C112.119 13.9246 113.341 14.1225 114.517 14.5184C115.565 14.8677 116.578 15.3334 117.533 15.9155C118.29 16.3812 119.035 16.8935 119.733 17.4523C120.048 17.7318 120.385 17.9879 120.746 18.1975C120.944 18.1975 121.037 17.9064 121.037 17.3126C121.061 16.6723 120.956 16.0436 120.735 15.4498C120.362 14.7512 119.861 14.1109 119.279 13.5753C118.092 12.3296 116.718 11.2701 115.204 10.4435C113.865 9.75653 112.387 9.39561 110.885 9.40726C110.116 9.40726 109.348 9.5004 108.603 9.67504C107.881 9.84968 107.182 10.1175 106.519 10.4551C105.82 10.8277 105.157 11.2584 104.528 11.7474C103.806 12.3063 103.131 12.9117 102.49 13.5637C101.908 14.0876 101.408 14.7047 101.035 15.4032C100.826 16.0203 100.732 16.6606 100.756 17.3126C100.732 17.9064 100.826 18.1975 101.012 18.1975Z" fill="#F47D21"/>
<path d="M59.3893 18.1975C59.8201 17.9879 60.2392 17.7434 60.6234 17.4524C61.3802 16.9634 62.2767 16.4511 63.3012 15.9155C64.4655 15.3334 65.6763 14.8677 66.9338 14.53C68.3542 14.1342 69.8328 13.9246 71.3114 13.9363C72.79 13.9363 74.2686 14.1342 75.7007 14.53C76.9581 14.8677 78.1689 15.3334 79.3332 15.9272C80.253 16.3929 81.1495 16.9051 82.011 17.464C82.3952 17.7551 82.8027 17.9996 83.2451 18.2091C83.478 18.2091 83.5828 17.9181 83.5828 17.3243C83.6177 16.6839 83.4896 16.0436 83.2219 15.4615C82.7561 14.7396 82.1624 14.1109 81.4755 13.587C79.9968 12.3063 78.3436 11.2584 76.5622 10.4551C74.8973 9.75654 73.1044 9.39562 71.2998 9.41891C70.3683 9.41891 69.4486 9.5004 68.5404 9.68669C67.6672 9.86133 66.8173 10.1291 66.0023 10.4667C65.1641 10.8277 64.3607 11.2584 63.5923 11.7591C62.7307 12.3179 61.9041 12.9234 61.1124 13.587C60.4255 14.0876 59.8201 14.7047 59.3544 15.4265C59.0982 16.0319 58.9818 16.6723 59.0167 17.3359C59.04 17.9181 59.1681 18.1975 59.3893 18.1975Z" fill="#F47D21"/>
<path d="M71.0553 55.2095C73.2674 55.2212 75.4562 54.7904 77.5053 53.9521C79.5428 53.1138 81.3823 51.8797 82.9424 50.3196C84.5025 48.7595 85.725 46.9083 86.5633 44.8825C87.4016 42.8566 87.8207 40.6795 87.8207 38.4906C87.8323 36.2785 87.4016 34.0781 86.5633 32.0289C85.725 29.9915 84.4909 28.1403 82.9424 26.5918C81.3823 25.0317 79.5428 23.7976 77.5053 22.9593C75.4562 22.121 73.2674 21.6902 71.0553 21.7019C68.8664 21.7019 66.7009 22.1327 64.6751 22.9593C62.6492 23.7976 60.7981 25.0317 59.2496 26.5918C57.7011 28.1519 56.467 30.0031 55.6287 32.0289C54.7904 34.0781 54.3597 36.2785 54.3597 38.4906C54.3597 40.6795 54.7904 42.8566 55.6287 44.8825C56.467 46.9199 57.7011 48.7711 59.2496 50.3196C60.7981 51.8797 62.6492 53.1138 64.6751 53.9521C66.6893 54.7904 68.8664 55.2095 71.0553 55.2095ZM66.1304 28.5245C66.3167 26.1843 66.9338 24.4612 67.9816 23.3552C68.8315 22.61 69.9259 22.2142 71.0553 22.2491H71.1368C72.2661 22.2258 73.3605 22.61 74.2104 23.3552C75.2583 24.4612 75.8753 26.1843 76.0616 28.5245C76.2479 30.8647 76.3061 33.5076 76.2595 36.4532V40.4815C76.3177 43.4271 76.2479 46.0817 76.0616 48.4451C75.8753 50.8086 75.2583 52.5317 74.2104 53.6261C73.3605 54.3596 72.2661 54.7555 71.1368 54.7322H71.0553C69.9259 54.7671 68.8315 54.3712 67.9816 53.6261C66.9105 52.5783 66.2934 50.8668 66.1304 48.5033C65.9674 46.1399 65.9092 43.4737 65.9558 40.5165V36.4881C65.8859 33.5425 65.9441 30.8996 66.1304 28.5594V28.5245Z" fill="#F47D21"/>
<path d="M129.478 53.6494V38.5139C129.397 36.2436 128.884 34.0082 127.988 31.9358C127.126 29.9566 125.916 28.152 124.402 26.6151C122.9 25.0899 121.13 23.8675 119.163 23.0292C117.137 22.156 114.948 21.7136 112.736 21.7252C111.316 21.7368 109.895 21.9115 108.521 22.2608C107.148 22.5984 105.832 23.134 104.621 23.8675C104.411 24.0304 104.307 24.0072 104.307 23.7976V21.7252H103.678C102.293 23.5764 100.558 25.1365 98.5552 26.3008C96.4945 27.5233 94.1776 28.2567 91.7792 28.443V28.9786H92.2449C92.9202 28.9786 93.2695 29.3395 93.2695 30.0846V53.6611C93.2927 53.8008 93.2811 53.9405 93.2345 54.0802C93.188 54.2083 93.1181 54.3363 93.0133 54.4295C92.9085 54.5343 92.7921 54.6041 92.664 54.6507C92.536 54.6973 92.3846 54.7089 92.2449 54.6856H91.7792V55.2212H105.878V54.6856H105.413C104.679 54.6856 104.307 54.348 104.307 53.6611V25.6604C104.307 25.3461 104.388 25.0201 104.551 24.7523C104.714 24.4729 104.947 24.2517 105.226 24.1003C106.379 23.4367 107.625 22.9477 108.917 22.645C110.163 22.3655 111.432 22.2142 112.701 22.2142C113.865 22.2025 114.983 22.6217 115.856 23.4017C116.904 24.5078 117.603 26.2309 117.94 28.5711C118.313 31.1907 118.487 33.8452 118.476 36.4998V53.6727C118.476 54.3596 118.103 54.6973 117.37 54.6973H116.904V55.2328H131.003V54.6973H130.538C130.398 54.7205 130.247 54.7089 130.119 54.6623C129.979 54.6158 129.862 54.5459 129.758 54.4411C129.653 54.3363 129.583 54.2199 129.536 54.0802C129.49 53.9405 129.467 53.8008 129.478 53.6494Z" fill="#F47D21"/>
<path d="M106.67 67.5508C97.065 70.706 86.703 70.706 77.0978 67.5508C72.4174 65.851 68.0864 63.3362 64.2792 60.1228L63.3245 61.322C67.3529 65.3853 72.0449 68.7384 77.2026 71.2066C81.7782 73.4304 86.8078 74.5947 91.9073 74.5947C96.9951 74.5947 102.025 73.442 106.612 71.2066C111.77 68.7268 116.45 65.3737 120.455 61.2871L119.524 60.0879C115.705 63.3129 111.351 65.8277 106.67 67.5508Z" fill="#F47D21"/>
<path d="M26.848 22.9011L16.4744 0.0349121H2.01418V0.570475H2.54975C2.72439 0.54719 2.89903 0.558833 3.06202 0.617046C3.22502 0.675259 3.37638 0.768401 3.50445 0.884827C3.63252 1.0129 3.72566 1.16425 3.77223 1.32725C3.83044 1.49025 3.84208 1.67653 3.80716 1.83953V53.4049C3.83044 53.5796 3.8188 53.7542 3.76058 53.9172C3.70237 54.0802 3.60923 54.2316 3.4928 54.348C3.36473 54.4644 3.21338 54.5576 3.05038 54.6158C2.88738 54.674 2.71274 54.6856 2.5381 54.6507H2.00254V55.1863H6.17062V54.6507H5.63506C5.46042 54.6856 5.28578 54.674 5.12278 54.6158C4.95978 54.5692 4.79678 54.4761 4.68036 54.348C4.55229 54.2316 4.45915 54.0802 4.40093 53.9056C4.34272 53.7426 4.33108 53.5679 4.35436 53.3933V5.7049C4.35436 5.55354 4.38929 5.40219 4.4475 5.25083C4.50572 5.11112 4.59886 4.98305 4.71528 4.87827C4.83171 4.76184 4.97142 4.6687 5.13442 4.61048C5.28577 4.55227 5.46042 4.51734 5.62341 4.52899C5.83298 4.5057 6.03091 4.55227 6.21719 4.64541C6.40347 4.73855 6.54318 4.88991 6.64797 5.06455L21.376 35.6382L36.0108 5.06455C36.1156 4.91319 36.2553 4.78512 36.4066 4.69198C36.5696 4.59884 36.7443 4.54063 36.9306 4.51734C37.1169 4.49406 37.3031 4.51734 37.4778 4.57556C37.6524 4.63377 37.8154 4.73855 37.9435 4.86662C38.0599 4.97141 38.1414 5.09948 38.2113 5.23919C38.2811 5.3789 38.3044 5.53026 38.3044 5.69325V53.4049C38.3044 53.5679 38.2811 53.7426 38.2229 53.8939C38.1647 54.0453 38.0715 54.1966 37.9551 54.3131C37.8503 54.4295 37.7223 54.511 37.5709 54.5808C37.4312 54.6391 37.2798 54.674 37.1168 54.674H36.4998V55.2096H51.2278V54.674H50.5991C50.4244 54.6973 50.2498 54.6856 50.0868 54.6274C49.9238 54.5692 49.7724 54.4761 49.656 54.3596C49.5396 54.2316 49.4464 54.0919 49.3882 53.9289C49.33 53.7659 49.3184 53.5912 49.3417 53.4166V1.85117C49.3184 1.67653 49.33 1.50189 49.3882 1.33889C49.4464 1.17589 49.5396 1.02454 49.656 0.908113C49.7841 0.780043 49.9238 0.698545 50.0868 0.640331C50.2498 0.582118 50.4244 0.570475 50.5991 0.59376H51.2278V0.0465548H37.8387L26.848 22.9011Z" fill="#FFFFFF"/>
<path d="M204.713 55.2095V54.674H204.236C203.502 54.674 203.13 54.3363 203.13 53.6494V21.7136H202.594C201.232 23.6113 199.462 25.1831 197.437 26.3241C195.341 27.5116 193.024 28.2335 190.626 28.4663V29.0019H191.103C191.243 28.9786 191.382 28.9902 191.522 29.0368C191.662 29.0834 191.778 29.1532 191.871 29.258C191.976 29.3628 192.046 29.4792 192.093 29.6189C192.139 29.7587 192.151 29.8984 192.127 30.0381V48.9691C191.767 48.9109 191.394 48.8876 191.021 48.8876C189.508 48.8294 188.018 49.3416 186.853 50.308C186.434 50.6689 186.073 51.0997 185.782 51.577V8.39435C185.782 7.66086 186.12 7.2883 186.807 7.2883H187.284V6.75274C184.886 6.56645 182.557 5.83296 180.473 4.61048C178.424 3.45786 176.654 1.89774 175.246 0.0349121H174.71V53.6727C174.733 53.8124 174.722 53.9521 174.675 54.0919C174.628 54.2199 174.559 54.348 174.454 54.4411C174.349 54.5459 174.233 54.6158 174.105 54.6623C173.965 54.7089 173.825 54.7206 173.685 54.6973H173.15V55.2328H187.238V54.6973H186.76C186.62 54.7206 186.481 54.7089 186.341 54.6623C186.213 54.6158 186.085 54.5459 185.992 54.4411C185.887 54.3363 185.817 54.2199 185.771 54.0919C185.724 53.9638 185.712 53.8124 185.736 53.6727V53.6029C185.759 53.044 185.899 52.5084 186.155 52.0078C186.411 51.5188 186.783 51.088 187.226 50.762C188.309 49.9238 189.636 49.4814 190.998 49.5046C191.371 49.5046 191.732 49.5396 192.104 49.5861V53.6844C192.127 53.8241 192.116 53.9638 192.069 54.1035C192.023 54.2316 191.953 54.3596 191.848 54.4528C191.743 54.5459 191.627 54.6274 191.499 54.674C191.359 54.7206 191.219 54.7322 191.08 54.7089H190.602V55.2445H197.471C197.506 55.5006 197.53 55.7684 197.53 56.0362C197.506 57.0142 197.308 57.9689 196.936 58.877C196.493 59.9248 195.841 60.8679 195.038 61.6596C194.083 62.591 192.966 63.3128 191.732 63.8018C190.148 64.4189 188.46 64.7216 186.772 64.675C184.804 64.6634 182.848 64.384 180.95 63.8484C178.901 63.2779 176.91 62.5561 174.978 61.6596C172.975 60.7398 170.996 59.7269 169.028 58.6208C167.061 57.5148 165.163 56.4087 163.323 55.3027C162.741 54.9883 162.194 54.674 161.67 54.3596C161.146 54.0453 160.599 53.7542 160.098 53.4864C161.635 52.6831 163.044 51.6469 164.267 50.4128C165.827 48.8643 167.061 47.0131 167.899 44.9756C168.737 42.9265 169.168 40.7261 169.156 38.5023V30.0847C169.133 29.9449 169.145 29.8052 169.191 29.6655C169.238 29.5258 169.308 29.4094 169.413 29.3046C169.506 29.1998 169.634 29.13 169.762 29.0834C169.89 29.0368 170.041 29.0252 170.181 29.0485H170.717V28.5129C168.295 28.2917 165.943 27.5582 163.824 26.3706C161.787 25.2297 160.029 23.6579 158.666 21.7601H158.131V22.7847C156.291 22.0861 154.347 21.7369 152.379 21.7601C150.167 21.7252 147.967 22.156 145.918 23.0059C143.869 23.8558 142.017 25.1249 140.481 26.7199C138.92 28.2684 137.686 30.1079 136.848 32.1454C136.01 34.1712 135.591 36.3484 135.602 38.5489C135.544 42.682 137.069 46.6755 139.863 49.7142C139.328 50.0286 138.816 50.3895 138.327 50.7853C137.744 51.2743 137.197 51.8099 136.72 52.392C136.173 53.0557 135.742 53.8008 135.428 54.5925C135.067 55.489 134.88 56.4553 134.892 57.4333C134.857 59.0051 135.276 60.5419 136.08 61.8924C136.918 63.2197 138.117 64.2792 139.537 64.9312C141.074 65.6647 142.669 66.2584 144.311 66.7125C146.22 67.2714 148.211 67.8419 150.295 68.4473C152.379 69.0527 154.452 69.693 156.512 70.38C158.457 71.0087 160.331 71.8004 162.148 72.7434C163.684 73.5235 165.058 74.583 166.211 75.8636C166.991 76.7368 167.503 77.808 167.678 78.9606C167.852 80.1132 167.689 81.3008 167.189 82.3603C166.327 84.3628 165.082 86.1674 163.51 87.6693C161.938 89.1712 160.087 90.3355 158.049 91.1039C156.012 91.8723 153.846 92.2216 151.681 92.1285C149.515 92.0353 147.385 91.4998 145.417 90.5684C143.321 89.5438 141.459 88.1117 139.933 86.3304C140.772 86.7495 141.68 86.9591 142.611 86.9591C143.706 86.9591 144.765 86.6331 145.673 86.0277C146.581 85.4223 147.291 84.5607 147.711 83.5478C148.13 82.5349 148.235 81.4288 148.025 80.3577C147.815 79.2866 147.291 78.297 146.511 77.5286C145.743 76.7601 144.753 76.2246 143.682 76.015C142.611 75.8054 141.505 75.9102 140.492 76.3294C139.479 76.7485 138.618 77.4587 138.012 78.3668C137.407 79.275 137.081 80.3461 137.081 81.4405C137.081 82.6979 137.465 83.9204 138.187 84.9449C138.874 85.9578 139.666 86.9009 140.55 87.7392C142.076 89.3342 143.915 90.5916 145.941 91.4416C150.062 93.1297 154.673 93.1297 158.794 91.4416C162.858 89.6369 166.106 86.3886 167.899 82.3253C169.587 78.2038 169.587 73.5817 167.899 69.4485C166.071 65.2805 162.695 61.9856 158.492 60.2625C156.256 59.3776 153.963 58.6441 151.634 58.062C149.329 57.4799 147.117 56.9443 145.021 56.4553C143.24 56.0827 141.54 55.3958 139.992 54.4411C139.631 54.2432 139.34 53.9405 139.142 53.5796C138.944 53.2187 138.862 52.8112 138.885 52.392C138.885 52.0427 138.955 51.6818 139.107 51.3675C139.258 51.0531 139.479 50.762 139.747 50.5408C140.352 50.0286 141.051 49.6211 141.796 49.3649C142.576 49.0739 143.38 48.8759 144.195 48.7711C144.835 48.678 145.475 48.6314 146.127 48.6198C147.385 48.6314 148.63 48.8294 149.83 49.2136C151.238 49.6444 152.601 50.1799 153.928 50.8203C155.36 51.5072 156.827 52.2756 158.34 53.1139C159.854 53.9521 161.402 54.8486 162.986 55.7917C164.93 56.9443 166.886 58.0736 168.854 59.1797C170.821 60.2858 172.801 61.287 174.803 62.1719C179.367 64.221 183.36 65.2455 186.772 65.2455C188.635 65.3154 190.486 64.9778 192.209 64.2559C193.362 63.732 194.433 63.0334 195.364 62.1602C196.179 61.2987 196.843 60.3207 197.332 59.2379C197.797 58.225 198.042 57.1306 198.042 56.0245C198.042 55.7568 198.03 55.5006 197.995 55.2328L204.713 55.2095ZM157.619 40.5398C157.619 42.7519 157.595 44.8126 157.537 46.7337C157.525 48.3753 157.258 50.0053 156.745 51.5654C155.057 50.6689 153.416 49.9005 151.82 49.2369C150.4 48.6314 148.91 48.2123 147.373 48.0144C147.257 46.8501 147.21 45.6742 147.21 44.5099V36.5463C147.21 33.5425 147.291 30.8764 147.454 28.5478C147.617 26.2076 148.223 24.5195 149.271 23.46C150.144 22.6916 151.262 22.2724 152.426 22.2724C153.59 22.2724 154.708 22.6916 155.581 23.46C156.629 24.5078 157.223 26.2076 157.397 28.5478C157.56 30.888 157.642 33.5542 157.63 36.5463L157.619 40.5398Z" fill="#FFFFFF"/>
<path d="M197.6 13.6802C198.321 13.6802 199.043 13.5405 199.707 13.261C200.37 12.9816 200.988 12.5741 201.488 12.0618C202 11.5496 202.408 10.9441 202.676 10.2689C202.955 9.60523 203.095 8.88338 203.095 8.16154C203.095 7.25341 202.874 6.35692 202.443 5.56522C202.012 4.76187 201.395 4.0866 200.638 3.57432C199.881 3.07369 199.02 2.75933 198.112 2.66619C197.204 2.57305 196.296 2.71276 195.457 3.06204C194.619 3.41132 193.886 3.95853 193.303 4.65709C192.733 5.35565 192.337 6.19392 192.162 7.07877C191.988 7.96361 192.034 8.88338 192.29 9.75658C192.558 10.6298 193.024 11.4098 193.664 12.0618C194.177 12.5858 194.782 12.9932 195.457 13.2727C196.156 13.5521 196.866 13.6918 197.6 13.6802Z" fill="#FFFFFF"/>
<path d="M230.758 43.7881C230.781 41.6226 230.187 39.5036 229.023 37.6757C227.929 35.9177 226.369 34.4856 224.529 33.5309L216.263 29.1999L214.924 28.4897C214.435 28.2801 214.027 27.9192 213.748 27.4767C213.468 27.0227 213.329 26.4988 213.352 25.9748C213.317 25.4276 213.457 24.8921 213.736 24.4264C214.016 23.9607 214.435 23.5881 214.924 23.3669C216.251 22.6334 217.741 22.2492 219.255 22.2608C220.629 22.2375 222.003 22.5286 223.248 23.0991C224.506 23.6696 225.612 24.5195 226.497 25.5673C226.986 26.1728 227.23 26.9412 227.207 27.7096V30.6203H227.742V22.5752H227.207V24.4846C227.207 24.7989 227.079 24.9619 226.811 24.9619C226.753 24.9619 226.695 24.9386 226.636 24.9154C226.578 24.8921 226.532 24.8455 226.497 24.8106C225.588 23.8559 224.494 23.0875 223.283 22.5635C222.037 22.0163 220.687 21.7253 219.325 21.7136C217.963 21.702 216.612 21.9698 215.355 22.4937C213.515 23.2737 211.943 24.5777 210.837 26.2426C209.743 27.9192 209.161 29.8751 209.172 31.8777C209.161 33.6706 209.638 35.4287 210.546 36.9772C211.431 38.4907 212.688 39.7598 214.214 40.6446L226.182 46.8734C226.683 47.0947 227.09 47.4672 227.37 47.9329C227.649 48.3986 227.789 48.9342 227.754 49.4814C227.777 49.8656 227.707 50.2498 227.556 50.6107C227.405 50.9717 227.172 51.286 226.881 51.5305C225.903 52.5201 224.739 53.3118 223.458 53.859C222.131 54.4179 220.687 54.709 219.243 54.6857C217.776 54.6973 216.333 54.4062 214.994 53.8125C212.409 52.7064 210.36 50.6457 209.242 48.061C208.66 46.7221 208.357 45.2668 208.369 43.7998H207.833C207.822 45.3366 208.136 46.8502 208.742 48.2589C209.906 50.9949 212.071 53.1721 214.807 54.3364C216.216 54.9418 217.73 55.2445 219.255 55.2445C220.792 55.2445 222.317 54.9418 223.737 54.3364C226.485 53.1838 228.674 51.0066 229.826 48.2589C230.455 46.8269 230.758 45.325 230.758 43.7881Z" fill="#FFFFFF"/>
<path d="M272.497 54.674C272.357 54.6973 272.217 54.6856 272.078 54.6391C271.95 54.5925 271.822 54.5226 271.717 54.4178C271.612 54.3131 271.542 54.1966 271.496 54.0686C271.449 53.9405 271.437 53.7891 271.461 53.6494V35.0444C271.437 33.4377 271.076 31.8427 270.389 30.3874C269.644 28.7574 268.573 27.3021 267.234 26.0912C265.709 24.7174 263.939 23.6463 262.018 22.9361C259.678 22.0745 257.187 21.667 254.695 21.7136C253.275 21.7252 251.866 21.8999 250.48 22.2491C249.107 22.5868 247.791 23.1223 246.58 23.8558C246.371 23.9606 246.266 23.914 246.266 23.7045V0.0349121H245.73C244.345 1.89774 242.587 3.45786 240.573 4.61048C238.489 5.83296 236.16 6.56645 233.762 6.75274V7.2883H234.239C234.914 7.2883 235.264 7.66086 235.264 8.39435V53.6494C235.287 53.7891 235.275 53.9289 235.229 54.0686C235.182 54.1966 235.112 54.3247 235.007 54.4178C234.914 54.5226 234.786 54.5925 234.658 54.6391C234.53 54.6856 234.39 54.6973 234.251 54.674H233.773V55.2096H247.873V54.674H247.395C246.662 54.674 246.301 54.3363 246.301 53.6494V25.6604C246.289 25.3461 246.371 25.0317 246.534 24.7523C246.697 24.4729 246.929 24.2517 247.209 24.1003C249.526 22.8895 252.099 22.2724 254.707 22.2841C255.766 22.2375 256.814 22.5635 257.664 23.1922C258.432 23.8093 259.038 24.6126 259.434 25.5207C259.876 26.5569 260.156 27.663 260.26 28.7923C260.388 30.0381 260.458 31.2955 260.447 32.5529V53.6844C260.447 54.3713 260.086 54.7089 259.376 54.7089H258.898V55.2445H272.997V54.7089L272.497 54.674Z" fill="#FFFFFF"/>
<path d="M4.07494 79.8687V91.197H2.21211V79.8687H4.07494ZM13.0049 82.0692C13.7151 82.0692 14.3438 82.2205 14.891 82.5116C15.4615 82.8027 15.8923 83.2451 16.2066 83.8156C16.521 84.3861 16.684 85.0846 16.684 85.8996V91.197H14.8444V86.1791C14.8444 85.3757 14.6465 84.7586 14.239 84.3395C13.8315 83.9087 13.2843 83.6875 12.5974 83.6875C11.8988 83.6875 11.3516 83.9087 10.9325 84.3395C10.525 84.7586 10.3271 85.3757 10.3271 86.1791V91.197H8.46422V82.2205H10.3271V83.2451C10.6298 82.8725 11.014 82.5931 11.4797 82.3835C11.9687 82.174 12.4693 82.0692 13.0049 82.0692ZM23.1806 83.7341V88.7172C23.1806 89.0548 23.2621 89.2993 23.4134 89.4506C23.5764 89.5904 23.8442 89.6602 24.2284 89.6602H25.3694V91.2087H23.9024C23.0641 91.2087 22.4238 91.0108 21.9814 90.6266C21.5389 90.2307 21.3177 89.602 21.3177 88.7172V83.7457H20.2583V82.2322H21.3177V79.9851H23.1922V82.2205H25.381V83.7341H23.1806ZM37.2682 86.4818C37.2682 86.8194 37.2449 87.1221 37.1983 87.3899H30.3408C30.399 88.1117 30.6668 88.6822 31.1442 89.113C31.6215 89.5438 32.2036 89.765 32.9022 89.765C33.9035 89.765 34.6137 89.3459 35.0212 88.5076H37.0237C36.7559 89.3342 36.2553 90.0095 35.5451 90.5451C34.8349 91.069 33.9617 91.3251 32.9022 91.3251C32.0406 91.3251 31.2722 91.1388 30.5853 90.7546C29.91 90.3588 29.3745 89.8232 28.9903 89.1246C28.6061 88.4144 28.4198 87.5995 28.4198 86.6797C28.4198 85.7599 28.6061 84.9449 28.9786 84.2464C29.3628 83.5362 29.8867 83.0006 30.562 82.6164C31.2489 82.2322 32.029 82.0459 32.9138 82.0459C33.7638 82.0459 34.5205 82.2322 35.1842 82.6047C35.8478 82.9773 36.3601 83.5012 36.7326 84.1649C37.0819 84.8518 37.2682 85.6202 37.2682 86.4818ZM35.3239 85.8996C35.3122 85.2127 35.0677 84.6655 34.5904 84.258C34.113 83.8505 33.5193 83.641 32.8091 83.641C32.1687 83.641 31.6215 83.8505 31.1674 84.258C30.7134 84.6655 30.434 85.2127 30.3525 85.8996H35.3239ZM42.9149 83.5245C43.1827 83.0705 43.5436 82.7095 43.986 82.465C44.4401 82.2089 44.9757 82.0692 45.6044 82.0692V83.9902H45.127C44.3935 83.9902 43.8463 84.1765 43.4621 84.5491C43.0895 84.9216 42.9033 85.562 42.9033 86.4701V91.197H41.0404V82.2205H42.9033L42.9149 83.5245ZM53.8008 82.0692C54.511 82.0692 55.1397 82.2205 55.6869 82.5116C56.2574 82.8027 56.6882 83.2451 57.0025 83.8156C57.3169 84.3861 57.4799 85.0846 57.4799 85.8996V91.197H55.6403V86.1791C55.6403 85.3757 55.4424 84.7586 55.0349 84.3395C54.6274 83.9087 54.0802 83.6875 53.3933 83.6875C52.6947 83.6875 52.1475 83.9087 51.7284 84.3395C51.3209 84.7586 51.123 85.3757 51.123 86.1791V91.197H49.2602V82.2205H51.123V83.2451C51.4257 82.8725 51.8099 82.5931 52.2756 82.3835C52.753 82.174 53.2652 82.0692 53.8008 82.0692ZM61.1823 86.668C61.1823 85.7716 61.3685 84.9682 61.7411 84.2697C62.1253 83.5711 62.6376 83.0355 63.2779 82.6513C63.9299 82.2555 64.6518 82.0692 65.4318 82.0692C66.142 82.0692 66.7475 82.2089 67.2714 82.4883C67.8069 82.7561 68.2261 83.1054 68.5404 83.5129V82.2089H70.4149V91.197H68.5404V89.8581C68.2261 90.2773 67.7953 90.6382 67.2481 90.9176C66.7009 91.197 66.0838 91.3368 65.3853 91.3368C64.6168 91.3368 63.9066 91.1388 63.2663 90.7546C62.626 90.3471 62.1137 89.7999 61.7295 89.0897C61.3685 88.3795 61.1823 87.5645 61.1823 86.668ZM68.5404 86.7146C68.5404 86.0976 68.4124 85.562 68.1446 85.0963C67.9001 84.6422 67.5624 84.2929 67.1549 84.0484C66.7475 83.8039 66.2934 83.6875 65.816 83.6875C65.3387 83.6875 64.8963 83.8039 64.4771 84.0484C64.0696 84.2813 63.732 84.6189 63.4642 85.073C63.2197 85.5154 63.0917 86.051 63.0917 86.668C63.0917 87.2851 63.2197 87.8323 63.4642 88.298C63.7204 88.7637 64.058 89.1246 64.4771 89.3691C64.8963 89.6136 65.3503 89.7301 65.816 89.7301C66.2934 89.7301 66.7358 89.6136 67.1549 89.3691C67.5624 89.1246 67.9001 88.787 68.1446 88.3213C68.4007 87.8556 68.5404 87.32 68.5404 86.7146ZM76.9814 83.7341V88.7172C76.9814 89.0548 77.0629 89.2993 77.2142 89.4506C77.3772 89.5904 77.645 89.6602 78.0292 89.6602H79.1702V91.2087H77.7032C76.8649 91.2087 76.2246 91.0108 75.7822 90.6266C75.3398 90.2307 75.1185 89.602 75.1185 88.7172V83.7457H74.0591V82.2322H75.1185V79.9851H76.9814V82.2205H79.1702V83.7341H76.9814ZM83.769 81.0213C83.4314 81.0213 83.152 80.9049 82.9191 80.6837C82.6863 80.4509 82.5815 80.1714 82.5815 79.8338C82.5815 79.4962 82.6979 79.2167 82.9191 78.9839C83.152 78.751 83.4314 78.6462 83.769 78.6462C84.095 78.6462 84.3745 78.7627 84.5957 78.9839C84.8285 79.2167 84.9333 79.4962 84.9333 79.8338C84.9333 80.1714 84.8169 80.4509 84.5957 80.6837C84.3745 80.9166 84.095 81.0213 83.769 81.0213ZM84.6888 82.2205V91.197H82.826V82.2205H84.6888ZM92.9784 91.3484C92.1285 91.3484 91.3601 91.1621 90.6848 90.7779C89.9979 90.3821 89.4623 89.8465 89.0665 89.1479C88.6706 88.4377 88.4843 87.6227 88.4843 86.703C88.4843 85.7948 88.6823 84.9799 89.0897 84.2697C89.4972 83.5594 90.0444 83.0239 90.7314 82.6397C91.4299 82.2555 92.1983 82.0692 93.0599 82.0692C93.9215 82.0692 94.6899 82.2555 95.3884 82.6397C96.087 83.0239 96.6342 83.5594 97.0301 84.2697C97.4375 84.9799 97.6355 85.7832 97.6355 86.703C97.6355 87.6111 97.4259 88.4261 97.0184 89.1363C96.6109 89.8465 96.0404 90.3937 95.3186 90.7779C94.62 91.1505 93.84 91.3484 92.9784 91.3484ZM92.9784 89.7417C93.4558 89.7417 93.8982 89.6253 94.3173 89.4041C94.7364 89.1712 95.0857 88.8336 95.3419 88.3795C95.598 87.9254 95.7377 87.3666 95.7377 86.7146C95.7377 86.0626 95.6096 85.5154 95.3651 85.073C95.1207 84.6189 94.783 84.2697 94.3755 84.0484C93.968 83.8156 93.514 83.7108 93.0366 83.7108C92.5593 83.7108 92.1168 83.8272 91.6977 84.0484C91.2902 84.2813 90.9759 84.6189 90.7314 85.073C90.4869 85.5154 90.3704 86.0626 90.3704 86.7146C90.3704 87.681 90.6149 88.4261 91.1039 88.9616C91.6046 89.4739 92.2333 89.7417 92.9784 89.7417ZM105.96 82.0692C106.67 82.0692 107.299 82.2205 107.846 82.5116C108.417 82.8027 108.847 83.2451 109.162 83.8156C109.476 84.3861 109.639 85.0846 109.639 85.8996V91.197H107.8V86.1791C107.8 85.3757 107.602 84.7586 107.194 84.3395C106.787 83.9087 106.239 83.6875 105.552 83.6875C104.854 83.6875 104.307 83.9087 103.888 84.3395C103.48 84.7586 103.282 85.3757 103.282 86.1791V91.197H101.419V82.2205H103.282V83.2451C103.585 82.8725 103.969 82.5931 104.435 82.3835C104.924 82.174 105.436 82.0692 105.96 82.0692ZM113.353 86.668C113.353 85.7716 113.539 84.9682 113.912 84.2697C114.296 83.5711 114.797 83.0355 115.449 82.6513C116.101 82.2555 116.823 82.0692 117.603 82.0692C118.313 82.0692 118.918 82.2089 119.442 82.4883C119.978 82.7561 120.397 83.1054 120.711 83.5129V82.2089H122.586V91.197H120.711V89.8581C120.397 90.2773 119.966 90.6382 119.419 90.9176C118.872 91.197 118.255 91.3368 117.556 91.3368C116.788 91.3368 116.077 91.1388 115.437 90.7546C114.797 90.3471 114.284 89.7999 113.9 89.0897C113.539 88.3795 113.353 87.5645 113.353 86.668ZM120.711 86.7146C120.711 86.0976 120.583 85.562 120.315 85.0963C120.071 84.6422 119.733 84.2929 119.326 84.0484C118.907 83.8039 118.464 83.6875 117.987 83.6875C117.51 83.6875 117.067 83.8039 116.648 84.0484C116.24 84.2813 115.903 84.6189 115.635 85.073C115.379 85.5154 115.262 86.051 115.262 86.668C115.262 87.2851 115.391 87.8323 115.635 88.298C115.891 88.7637 116.229 89.1246 116.648 89.3691C117.067 89.6136 117.521 89.7301 117.987 89.7301C118.464 89.7301 118.907 89.6136 119.326 89.3691C119.733 89.1246 120.071 88.787 120.315 88.3213C120.572 87.8556 120.711 87.32 120.711 86.7146ZM128.838 79.1469V91.2087H126.975V79.1469H128.838Z" fill="#FFFFFF"/>
<path d="M185.654 88.8801H180.916L180.101 91.197H178.156L182.22 79.8571H184.373L188.437 91.197H186.481L185.654 88.8801ZM185.13 87.3666L183.291 82.1041L181.428 87.3666H185.13ZM191.522 86.7146C191.522 85.7948 191.708 84.9798 192.081 84.2813C192.465 83.5711 192.989 83.0355 193.641 82.6513C194.305 82.2671 195.061 82.0808 195.923 82.0808C197.006 82.0808 197.902 82.3369 198.612 82.8609C199.334 83.3731 199.812 84.1066 200.068 85.0613H198.065C197.902 84.6189 197.646 84.2696 197.285 84.0135C196.924 83.769 196.47 83.6409 195.935 83.6409C195.178 83.6409 194.561 83.9087 194.107 84.4559C193.664 84.9915 193.443 85.7366 193.443 86.703C193.443 87.6693 193.664 88.4261 194.107 88.9733C194.561 89.5205 195.178 89.7883 195.935 89.7883C197.006 89.7883 197.728 89.3109 198.065 88.3679H200.068C199.812 89.276 199.323 90.0095 198.601 90.5567C197.879 91.0922 196.994 91.36 195.923 91.36C195.061 91.36 194.305 91.1737 193.641 90.7895C192.977 90.3937 192.453 89.8581 192.081 89.1596C191.708 88.4377 191.522 87.6227 191.522 86.7146ZM203.258 86.668C203.258 85.7715 203.444 84.9682 203.817 84.2696C204.201 83.5711 204.713 83.0355 205.354 82.6513C206.006 82.2554 206.727 82.0692 207.507 82.0692C208.218 82.0692 208.823 82.2089 209.347 82.4883C209.883 82.7561 210.302 83.1054 210.616 83.5129V82.2089H212.49V91.197H210.616V89.8581C210.302 90.2772 209.871 90.6382 209.324 90.9176C208.776 91.197 208.159 91.3367 207.461 91.3367C206.692 91.3367 205.982 91.1388 205.342 90.7546C204.702 90.3471 204.189 89.7999 203.805 89.0897C203.444 88.3795 203.258 87.5645 203.258 86.668ZM210.604 86.7146C210.604 86.0975 210.476 85.562 210.209 85.0963C209.952 84.6422 209.626 84.2929 209.219 84.0484C208.811 83.8039 208.357 83.6875 207.88 83.6875C207.403 83.6875 206.96 83.8039 206.541 84.0484C206.122 84.2813 205.796 84.6189 205.528 85.073C205.284 85.5154 205.156 86.051 205.156 86.668C205.156 87.2851 205.284 87.8323 205.528 88.298C205.784 88.7637 206.122 89.1246 206.541 89.3691C206.96 89.6136 207.414 89.73 207.88 89.73C208.357 89.73 208.8 89.6136 209.219 89.3691C209.638 89.1246 209.964 88.787 210.209 88.3213C210.476 87.8556 210.604 87.32 210.604 86.7146ZM216.263 86.668C216.263 85.7715 216.449 84.9682 216.822 84.2696C217.206 83.5711 217.706 83.0355 218.358 82.6513C219.01 82.2554 219.732 82.0692 220.524 82.0692C221.106 82.0692 221.688 82.1972 222.247 82.465C222.818 82.7095 223.283 83.0471 223.621 83.4779V79.1469H225.495V91.197H223.621V89.8465C223.318 90.2773 222.899 90.6382 222.352 90.9176C221.816 91.197 221.211 91.3367 220.512 91.3367C219.732 91.3367 219.01 91.1388 218.358 90.7546C217.718 90.3471 217.206 89.7999 216.822 89.0897C216.449 88.3795 216.263 87.5645 216.263 86.668ZM223.609 86.7146C223.609 86.0975 223.481 85.562 223.213 85.0963C222.957 84.6422 222.631 84.2929 222.224 84.0484C221.805 83.8039 221.362 83.6875 220.885 83.6875C220.407 83.6875 219.965 83.8039 219.546 84.0484C219.127 84.2813 218.801 84.6189 218.533 85.073C218.277 85.5154 218.16 86.051 218.16 86.668C218.16 87.2851 218.289 87.8323 218.533 88.298C218.789 88.7637 219.127 89.1246 219.546 89.3691C219.965 89.6136 220.419 89.73 220.885 89.73C221.362 89.73 221.805 89.6136 222.224 89.3691C222.631 89.1246 222.969 88.787 223.213 88.3213C223.481 87.8556 223.609 87.32 223.609 86.7146ZM238.116 86.4817C238.116 86.8194 238.093 87.1221 238.046 87.3899H231.189C231.247 88.1117 231.515 88.6822 231.992 89.113C232.469 89.5438 233.063 89.765 233.75 89.765C234.751 89.765 235.461 89.3458 235.869 88.5076H237.872C237.604 89.3342 237.103 90.0095 236.393 90.545C235.683 91.069 234.809 91.3251 233.75 91.3251C232.888 91.3251 232.12 91.1388 231.433 90.7546C230.758 90.3587 230.222 89.8232 229.838 89.1246C229.454 88.4144 229.268 87.5994 229.268 86.6797C229.268 85.7599 229.454 84.9449 229.826 84.2463C230.211 83.5361 230.735 83.0006 231.41 82.6164C232.097 82.2322 232.877 82.0459 233.762 82.0459C234.612 82.0459 235.368 82.2322 236.032 82.6047C236.696 82.9773 237.208 83.5012 237.58 84.1648C237.93 84.8518 238.116 85.6202 238.116 86.4817ZM236.172 85.8996C236.16 85.2127 235.916 84.6655 235.438 84.258C234.961 83.8505 234.367 83.6409 233.657 83.6409C233.017 83.6409 232.469 83.8505 232.015 84.258C231.561 84.6655 231.293 85.2127 231.2 85.8996H236.172ZM252.774 82.0692C253.484 82.0692 254.113 82.2205 254.66 82.5116C255.219 82.8027 255.662 83.2451 255.976 83.8156C256.302 84.3861 256.465 85.0846 256.465 85.8996V91.197H254.625V86.179C254.625 85.3757 254.427 84.7586 254.02 84.3395C253.624 83.9087 253.065 83.6875 252.378 83.6875C251.691 83.6875 251.132 83.9087 250.713 84.3395C250.318 84.7586 250.108 85.3757 250.108 86.179V91.197H248.268V86.179C248.268 85.3757 248.07 84.7586 247.663 84.3395C247.267 83.9087 246.708 83.6875 246.021 83.6875C245.334 83.6875 244.776 83.9087 244.356 84.3395C243.961 84.7586 243.751 85.3757 243.751 86.179V91.197H241.888V82.2205H243.751V83.2451C244.054 82.8725 244.438 82.5931 244.904 82.3835C245.369 82.1739 245.87 82.0692 246.406 82.0692C247.127 82.0692 247.768 82.2205 248.327 82.5232C248.885 82.8259 249.328 83.2684 249.631 83.8388C249.898 83.2916 250.329 82.8609 250.9 82.5465C251.493 82.2322 252.111 82.0692 252.774 82.0692ZM268.876 82.2205L263.369 95.4233H261.448L263.276 91.0573L259.736 82.2205H261.809L264.335 89.0664L266.955 82.2205H268.876Z" fill="#FFFFFF"/>
</g>
<defs>
<clipPath id="clip0_1563_23015">
<rect width="275" height="95.4699" fill="#FFFFFF"/>
</clipPath>
</defs>
</svg>
