<svg width="11" height="10" viewBox="0 0 11 10" fill="none" xmlns="http://www.w3.org/2000/svg">
<path d="M6.17063 0.351523C6.06667 0.136703 5.847 0 5.60575 0C5.3645 0 5.14679 0.136703 5.04088 0.351523L3.77972 2.93522L0.963189 3.34923C0.727824 3.38439 0.531687 3.54843 0.459117 3.77302C0.386546 3.9976 0.445387 4.24562 0.614065 4.41162L2.65781 6.42506L2.17532 9.27045C2.13609 9.5048 2.23416 9.74305 2.42833 9.88171C2.62251 10.0204 2.87945 10.0379 3.09127 9.92662L5.60771 8.58888L8.12415 9.92662C8.33598 10.0379 8.59292 10.0223 8.78709 9.88171C8.98127 9.7411 9.07934 9.5048 9.04011 9.27045L8.55565 6.42506L10.5994 4.41162C10.7681 4.24562 10.8289 3.9976 10.7543 3.77302C10.6798 3.54843 10.4856 3.38439 10.2503 3.34923L7.43179 2.93522L6.17063 0.351523Z" fill="#999999" fill-opacity="0.5"/>
</svg>
