<svg width="11" height="10" viewBox="0 0 11 10" fill="none" xmlns="http://www.w3.org/2000/svg">
<path d="M5.74204 0.351523C5.63808 0.136703 5.41841 0 5.17716 0C4.93591 0 4.7182 0.136703 4.61229 0.351523L3.35113 2.93522L0.5346 3.34923C0.299235 3.38439 0.103098 3.54843 0.0305277 3.77302C-0.042043 3.9976 0.016798 4.24562 0.185476 4.41162L2.22922 6.42506L1.74673 9.27045C1.7075 9.5048 1.80557 9.74305 1.99974 9.88171C2.19392 10.0204 2.45086 10.0379 2.66269 9.92662L5.17912 8.58888L7.69556 9.92662C7.90739 10.0379 8.16433 10.0223 8.3585 9.88171C8.55268 9.7411 8.65075 9.5048 8.61152 9.27045L8.12706 6.42506L10.1708 4.41162C10.3395 4.24562 10.4003 3.9976 10.3258 3.77302C10.2512 3.54843 10.0571 3.38439 9.82169 3.34923L7.0032 2.93522L5.74204 0.351523Z" fill="url(#paint0_linear_339_1152)"/>
<defs>
<linearGradient id="paint0_linear_339_1152" x1="2.07143" y1="7.25" x2="8.97619" y2="2.41667" gradientUnits="userSpaceOnUse">
<stop stop-color="#B68E2C"/>
<stop offset="0.5" stop-color="#F8EF8A"/>
<stop offset="1" stop-color="#B28A28"/>
</linearGradient>
</defs>
</svg>
