<svg width="56" height="30" viewBox="0 0 56 30" fill="none" xmlns="http://www.w3.org/2000/svg">
<path d="M19.1663 29.4826C19.1663 29.1322 19.1663 28.8633 19.1663 28.5944C19.1663 25.3948 19.1844 22.1983 19.1542 18.9987C19.1482 18.4277 19.3264 18.1829 19.8552 17.9714C24.1726 16.2553 27.3601 13.3005 29.3663 9.10087C29.9464 7.88932 29.4781 6.63547 28.339 6.11279C27.206 5.59312 25.9824 6.07955 25.4053 7.29714C24.0397 10.1825 21.9187 12.3578 18.9941 13.5815C17.2991 14.2915 15.4471 14.6389 13.6524 15.0982C7.72157 16.6149 3.47965 20.032 1.51278 25.9538C1.14115 27.0716 0.993109 28.259 0.727234 29.4826C2.32853 29.4826 3.7274 29.4826 5.18065 29.4826C5.55227 26.9206 6.50701 24.6425 8.32282 22.7995C8.38626 22.8176 8.45273 22.8358 8.51618 22.8539C8.51618 25.0625 8.51618 27.268 8.51618 29.4857C12.0904 29.4826 15.58 29.4826 19.1663 29.4826ZM29.1548 12.8413C29.2545 12.9621 29.4146 13.1766 29.5959 13.376C31.4661 15.4486 33.7019 17.0046 36.3123 17.9926C36.8319 18.189 36.9739 18.4518 36.9679 18.9836C36.9437 22.2043 36.9558 25.425 36.9558 28.6457C36.9558 28.9116 36.9558 29.1775 36.9558 29.4494C40.5602 29.4494 44.0801 29.4494 47.6664 29.4494C47.6664 27.2016 47.6664 25.0171 47.6664 22.6696C49.6302 24.6546 50.5729 26.9478 50.9505 29.4675C52.4431 29.4675 53.8419 29.4675 55.2257 29.4675C55.2499 29.3799 55.268 29.3376 55.271 29.2953C55.274 29.2047 55.274 29.114 55.2619 29.0234C54.4462 22.8448 51.1137 18.5757 45.4427 16.0892C45.2584 16.0076 44.9562 16.062 44.7629 16.1587C43.932 16.5726 43.1102 17.0107 42.3035 17.4699C41.9682 17.6602 41.7506 17.6149 41.4787 17.346C40.5904 16.4699 39.6901 15.6058 38.7626 14.7749C38.3154 14.3731 37.838 13.9591 37.2972 13.7084C34.9527 12.6237 33.0492 11.0375 31.602 8.89844C31.4993 8.74435 31.3815 8.59933 31.3634 8.57516C30.6443 9.96194 29.9192 11.3638 29.1548 12.8413ZM46.9684 9.49364C46.9745 6.88927 44.8535 4.77435 42.2552 4.78643C39.7263 4.80154 37.6265 6.89833 37.6084 9.43019C37.5933 12.0195 39.6629 14.1344 42.228 14.1525C44.8686 14.1676 46.9654 12.1101 46.9684 9.49364ZM13.8186 4.44804C11.2263 4.45409 9.15368 6.52671 9.15066 9.11295C9.14763 11.6901 11.2414 13.802 13.8065 13.8081C16.4048 13.8141 18.5318 11.6841 18.5137 9.0918C18.4956 6.50254 16.4109 4.43898 13.8186 4.44804ZM27.0852 3.69574C27.0066 2.71683 26.9432 1.92827 26.8767 1.13668C26.8374 0.686509 26.6199 0.387398 26.1365 0.468974C25.6591 0.550549 25.5503 0.910086 25.6319 1.34818C25.7769 2.1035 25.8918 2.8679 26.0881 3.61114C26.1365 3.79846 26.4356 4.0311 26.6259 4.03714C26.8072 4.04319 26.9915 3.77429 27.0852 3.69574ZM31.5386 2.04006C31.3724 1.88295 31.1911 1.57477 31.0099 1.57477C30.753 1.57477 30.3724 1.73793 30.2666 1.94337C29.892 2.66245 29.5838 3.4208 29.3179 4.18519C29.2575 4.36043 29.4569 4.62932 29.5355 4.85592C29.759 4.7683 30.0793 4.74715 30.185 4.584C30.602 3.94348 30.9555 3.25765 31.3271 2.58389C31.4026 2.45398 31.4419 2.29989 31.5386 2.04006ZM24.2844 4.60515C24.2754 4.5689 24.2754 4.48732 24.2331 4.44502C23.5684 3.73803 22.9218 3.01594 22.2118 2.36032C22.103 2.25759 21.6015 2.38751 21.4716 2.5567C21.3477 2.71683 21.3688 3.17909 21.5108 3.31807C22.1393 3.9314 22.8221 4.49639 23.511 5.04324C23.8191 5.28495 24.2754 5.02209 24.2844 4.60515ZM35.0886 5.0795C34.9345 4.85592 34.8499 4.58098 34.6868 4.52358C34.4693 4.44804 34.1339 4.44804 33.9496 4.57192C33.291 5.01001 32.6565 5.49342 32.0552 6.00704C31.9011 6.13696 31.9072 6.45117 31.8377 6.68079C32.0915 6.72611 32.4027 6.88926 32.587 6.79863C33.294 6.44815 33.9707 6.02517 34.6415 5.60521C34.8107 5.49644 34.9164 5.28495 35.0886 5.0795Z" fill="white"/>
<path d="M19.1663 29.4829C15.58 29.4829 12.0904 29.4829 8.51618 29.4829C8.51618 27.2682 8.51618 25.0597 8.51618 22.8511C8.45273 22.8329 8.38626 22.8148 8.32282 22.7967C6.50701 24.6397 5.55227 26.9178 5.18065 29.4798C3.7274 29.4798 2.32853 29.4798 0.727234 29.4798C0.993109 28.2592 1.14115 27.0688 1.51278 25.9509C3.48267 20.0261 7.7246 16.6121 13.6554 15.0923C15.4501 14.6331 17.3022 14.2856 18.9971 13.5756C21.9217 12.352 24.0427 10.1767 25.4083 7.29131C25.9854 6.07372 27.209 5.58729 28.342 6.10695C29.4781 6.62964 29.9464 7.88046 29.3693 9.09503C27.3601 13.3007 24.1726 16.2555 19.8552 17.9747C19.3264 18.1862 19.1482 18.4309 19.1542 19.0019C19.1844 22.2015 19.1663 25.398 19.1663 28.5976C19.1663 28.8635 19.1663 29.1354 19.1663 29.4829Z" fill="white"/>
<path d="M29.1549 12.841C29.9193 11.3606 30.6444 9.96173 31.3605 8.57495C31.3786 8.59912 31.4964 8.74415 31.5992 8.89823C33.0464 11.0373 34.9498 12.6205 37.2943 13.7082C37.8321 13.9589 38.3095 14.3729 38.7597 14.7747C39.6872 15.6086 40.5876 16.4696 41.4758 17.3458C41.7477 17.6147 41.9653 17.66 42.3006 17.4697C43.1104 17.0135 43.9291 16.5724 44.76 16.1584C44.9534 16.0618 45.2555 16.0074 45.4398 16.089C51.1108 18.5755 54.4463 22.8476 55.2591 29.0232C55.2711 29.1138 55.2711 29.2045 55.2681 29.2951C55.2681 29.3374 55.247 29.3827 55.2228 29.4673C53.839 29.4673 52.4402 29.4673 50.9476 29.4673C50.573 26.9476 49.6303 24.6514 47.6635 22.6694C47.6635 25.0169 47.6635 27.2044 47.6635 29.4492C44.0772 29.4492 40.5573 29.4492 36.9529 29.4492C36.9529 29.1773 36.9529 28.9114 36.9529 28.6455C36.9529 25.4248 36.9408 22.2041 36.965 18.9834C36.968 18.4546 36.829 18.1918 36.3094 17.9924C33.699 17.0044 31.4632 15.4484 29.593 13.3758C29.4147 13.1764 29.2546 12.9619 29.1549 12.841Z" fill="white"/>
<path d="M46.9683 9.49354C46.9623 12.11 44.8685 14.1675 42.2279 14.1524C39.6628 14.1373 37.5932 12.0194 37.6083 9.43009C37.6234 6.90125 39.7262 4.80144 42.2551 4.78634C44.8564 4.77123 46.9744 6.88917 46.9683 9.49354Z" fill="white"/>
<path d="M13.8186 4.44813C16.4109 4.44209 18.4956 6.50263 18.5138 9.08887C18.5319 11.6812 16.4049 13.8112 13.8065 13.8051C11.2414 13.7991 9.14768 11.6902 9.1507 9.11002C9.15372 6.5268 11.2263 4.45418 13.8186 4.44813Z" fill="white"/>
<path d="M27.0851 3.69579C26.9915 3.77132 26.8072 4.04022 26.6289 4.03719C26.4386 4.03115 26.1395 3.79851 26.0911 3.61119C25.8947 2.86795 25.7799 2.10658 25.6349 1.34823C25.5503 0.910136 25.6621 0.553621 26.1395 0.469024C26.6229 0.384427 26.8404 0.683538 26.8797 1.13673C26.9431 1.92832 27.0066 2.7199 27.0851 3.69579Z" fill="white"/>
<path d="M31.5387 2.03968C31.439 2.29649 31.4027 2.45057 31.3272 2.58653C30.9586 3.26029 30.6051 3.9431 30.1851 4.58664C30.0794 4.74979 29.7561 4.77094 29.5355 4.85856C29.457 4.63196 29.2576 4.36609 29.318 4.18783C29.5839 3.42344 29.892 2.66509 30.2667 1.94601C30.3755 1.73754 30.7561 1.57741 31.0099 1.57741C31.1912 1.57439 31.3725 1.88257 31.5387 2.03968Z" fill="white"/>
<path d="M24.2844 4.60487C24.2754 5.02181 23.8191 5.28466 23.511 5.03994C22.8191 4.49308 22.1393 3.93112 21.5109 3.31477C21.3689 3.17579 21.3507 2.71353 21.4716 2.5534C21.6015 2.3842 22.103 2.25429 22.2118 2.35701C22.9218 3.01264 23.5684 3.73775 24.2331 4.44172C24.2754 4.48704 24.2723 4.56861 24.2844 4.60487Z" fill="white"/>
<path d="M35.0886 5.07954C34.9164 5.28499 34.8107 5.49648 34.6384 5.60222C33.9677 6.02521 33.294 6.44517 32.5839 6.79564C32.3996 6.88628 32.0884 6.72313 31.8347 6.67781C31.9041 6.44819 31.9011 6.137 32.0522 6.00406C32.6534 5.49044 33.2879 5.00703 33.9466 4.56893C34.1309 4.44808 34.4662 4.44506 34.6838 4.52059C34.8499 4.58102 34.9345 4.85596 35.0886 5.07954Z" fill="white"/>
</svg>
